<svg xmlns="http://www.w3.org/2000/svg" version="1.1" xmlns:xlink="http://www.w3.org/1999/xlink" xmlns:svgjs="http://svgjs.dev/svgjs" width="2000" height="1500" viewBox="0 0 2000 1500"><rect width="2000" height="1500" fill="#ffffff"></rect><g transform="matrix(0.4444444444444444,0,0,0.4444444444444444,555.555751388889,250)"><svg viewBox="0 0 320 360" data-background-color="#ffffff" preserveAspectRatio="xMidYMid meet" height="2250" width="2000" xmlns="http://www.w3.org/2000/svg" xmlns:xlink="http://www.w3.org/1999/xlink"><g id="tight-bounds" transform="matrix(1,0,0,1,-0.000023499999997511622,0)"><svg viewBox="0 0 320 360" height="360" width="320"><rect width="320.000094" height="360" fill="url(#da0717e3-b2e5-4cde-a15d-3b9516b85d48)" mask="url(#ef47f24c-1abb-42f6-960d-7bc6fa31f75c)" data-fill-palette-color="tertiary"></rect><g><svg></svg></g><g><svg viewBox="0 0 320 360" height="360" width="320"><g><path transform="translate(-74.99272,-51.79039) scale(4.65793,4.65793)" d="M20.6 59.9l0.8 1-0.4-1.3c-0.1-0.6-0.8 0.1-0.4 0.3M21.5 59.3c0.3 0.5 0.6 1 0.6 1.5 0 0.7 0.6 1 1.1 1.2-0.7-0.8-1.1-3-1.7-2.7M59.9 16.9c1.7 0 3.3-0.2 5.1 0.2 4.4 1.1 8.1 3.3 10.6 6.4l7 11.2c0.3 2.8 0.9 5.9 0.8 9.3 0.7 0 0.6-1 1.4-1.2-0.8 2-1.2 4.5-1.4 7.4-0.5-1.6 0-4 0.1-5.3-0.7 1.1-1.1 0.3-1.1-0.2 0.1-0.8-0.3-0.7-0.6-1-1.1-1-1.8-2.1-2.6-3.8 0.5-1.3 0.6-3.2-1-4.2-0.5-0.3-1.1-0.8-1.4-1.6-0.4-1.1-1.1-2.4-0.9-4.1 0.1-0.5-1.5 1.1-2.4 0.4-3.9-2.7-7.8-5.8-12.5-8.4-2.5 0-4.3-0.9-5.2-2-0.8-1-0.2-2.3 1-2.4 0.7 0 1.5-0.2 2.1 0.2 0.1-0.4 0.5-0.9 1-0.9M50 14.6l0.2 0.1c1 0.2 1.5 1.6 2.6 1.1 0 0.7 0.1 1.4-0.1 1.9-0.3 0.8-1.2 0.8-1.9 0.8-6.7-0.4-10.6 2.4-14.7 4.8-1.1 0.7-2.3 1.2-3.2 2.1-4.3 4-9 7.7-10.1 15.1l-0.9 8.2c-0.1 0.9-1.1 1.8-0.9 2.9l0.7 4.9c-0.7-0.7-1.1 0.2-0.9 0.6 0.1 0.3 0.5 1.3 1.1 0.4 0.8 1.5 1.6 4.4 2.7 5.7 3.4 4 7.8 7.6 11.4 11.2 0.9-0.2 1.6-0.2 1.8-0.8 0.3 0.6-0.3 1.2-0.8 1.3 1.6 1 3.4 1.9 5.8 2.1 3.1 0.2 6 0.7 8.7 1.4 1.4-0.4 2.8-0.6 4.3-0.7 0.5 0 0.8-0.8 1.4-1l0.1-1c0.6 0.9 0.5-0.3 0.1-0.9 0.7 0.6 0.9 1.1 1.2 1.5 0-0.3 0.8-1.4 0.8-0.1l0.2-1.3c0.3-0.2 0.4 1.1 0.7 0.2 0.3-0.9 0.9-0.2 1.5-0.5-0.2 0.4-0.1 1.2 0.6 0.7l0.8-0.7c0.5 1.2 1.3 0.7 1.7 0.5 4.4-2.8 8.8-6.1 13-9.4l-0.1 1.3 0.5-1.6c0.5 0.5 0.9 0.1 1.1-0.2 0.6-1 1.4-2 2.7-2.9-1.6 4.3-3.5 7.7-5.9 10.5l-1 1.2c0 0.7-0.2 1.6-1 1.7-0.4 0.1-1.2-0.2-1.8 0.4-0.3 0.4 0.7 1.2-0.1 0.6-0.7-0.5-1.4 0-2.2 0.2-0.6 0.2 0.4 0.8 0.6 1.2 0.2 0.4 0.4 0.8 0.3 1.3l-1.1-1.2c-1.3 0.7-2.1 2-3.2 3-0.5 0.4-0.3 1.1-0.3 1.7-0.7 0-1.5-0.2-1.9 0.2-0.3 0.4-0.2 1-0.2 1.6-1-0.1-1.1-1.6-2-1.3-0.9 0.2-1.9 0.3-2.7 0.8 0.6 1.2-1 0.5-0.8 0.7-1.5-0.9-2.8-1.6-4.4-1-3.4-1.1-7.6-0.6-10.7-0.2 0-0.5 0.1-1-0.1-1.1-0.2 0.5-0.8 0.3-0.7 0.3-1.9-1.3-3.8-2.1-5.8-3.2-1.8 0.2-3.5-0.7-4-1.2-1.4-1.3-3-0.6-4.3-0.9-2.8-0.7-3.8-3.6-4.1-5.6-0.2-1-1-1.4-1.3-1.3-1.3-4.2-3.3-8-4.9-11.9-0.4-1-0.3-2-0.3-3.1 0.5 0.2 1 0.1 0.9-0.6-0.5-3.3-1.7-5.8-3-8.2 0.7-3.4 0.8-7.4 2.4-10.4 1.4-2.7 4-4.1 5.8-6.4 0.6-0.8 0.6-1.9 1.2-2.6 2-2 4-4.1 6.2-5.9 1-0.8 2.2 0 3.7-0.3 0.5-1.8 2.5-3.4 4.4-2.9 0.8 0.2 2.4-1.9 2.9-2.1 0.8-0.3 0.4 0.8 0.4 1.5 1.9-1.5 4.5-2.3 6.9-3.2" fill="url(#da0717e3-b2e5-4cde-a15d-3b9516b85d48)" fill-rule="nonzero" stroke="none" stroke-width="1" stroke-linecap="butt" stroke-linejoin="miter" stroke-miterlimit="10" stroke-dasharray="" stroke-dashoffset="0" font-family="none" font-weight="none" font-size="none" text-anchor="none" style="mix-blend-mode: normal" data-fill-palette-color="tertiary"></path></g><g transform="matrix(1,0,0,1,64,107.8089237112711)"><svg viewBox="0 0 192 144.3821525774578" height="144.3821525774578" width="192"><g><svg viewBox="0 0 192 144.3821525774578" height="144.3821525774578" width="192"><g><svg viewBox="0 0 192 144.3821525774578" height="144.3821525774578" width="192"><g transform="matrix(1,0,0,1,0,87.26724224888075)"><svg viewBox="0 0 192 57.11491032857704" height="57.11491032857704" width="192"><g id="textblocktransform"><svg viewBox="0 0 192 57.11491032857704" height="57.11491032857704" width="192" id="textblock"><g><svg viewBox="0 0 192 57.11491032857704" height="57.11491032857704" width="192"><g transform="matrix(1,0,0,1,0,0)"><svg width="192" viewBox="0.63 -37.94 196.2908695652174 58.4" height="57.11491032857704" data-palette-color="#0088ff"><path d="M2.59-3.71L2.59-3.71Q2.83-4.3 3.34-4.44 3.86-4.59 4.44-3.71L4.44-3.71Q4.44-3.61 4.91-3.44 5.37-3.27 6.08-3.05 6.79-2.83 7.74-2.61 8.69-2.39 9.62-2.22 10.55-2.05 11.43-1.93 12.3-1.81 12.94-1.81L12.94-1.81Q14.6-1.81 15.99-2.51 17.38-3.22 18.38-4.35 19.38-5.47 19.92-6.91 20.46-8.35 20.46-9.86L20.46-9.86Q20.46-10.3 20.31-11.4 20.17-12.5 19.82-13.6 19.48-14.7 18.92-15.58 18.36-16.46 17.58-16.46L17.58-16.46Q12.5-15.87 9.25-15.99 6.01-16.11 4.1-16.75 2.2-17.38 1.44-18.48 0.68-19.58 0.63-21L0.63-21Q0.63-22.75 1.51-24.39 2.39-26.03 3.76-27.29 5.13-28.56 6.81-29.32 8.5-30.08 10.16-30.08L10.16-30.08Q11.52-30.08 13.01-29.74 14.5-29.39 15.77-28.69 17.04-27.98 17.85-26.83 18.65-25.68 18.65-24.07L18.65-24.07Q17.48-24.07 16.5-24.73 15.53-25.39 14.55-26.12 13.57-26.86 12.5-27.51 11.43-28.17 10.01-28.17L10.01-28.17Q8.84-28.17 7.64-27.59 6.45-27 5.49-26.07 4.54-25.15 3.93-24 3.32-22.85 3.32-21.63L3.32-21.63Q3.32-21.14 3.34-20.58 3.37-20.02 3.56-19.51 3.76-18.99 4.17-18.65 4.59-18.31 5.37-18.31L5.37-18.31 18.51-18.31Q19.34-18.31 19.95-17.8 20.56-17.29 20.97-16.5 21.39-15.72 21.66-14.75 21.92-13.77 22.09-12.84 22.27-11.91 22.31-11.11 22.36-10.3 22.36-9.86L22.36-9.86Q22.36-7.96 21.83-6.27 21.29-4.59 20.21-3.25 19.14-1.9 17.53-1.05 15.92-0.2 13.82 0L13.82 0Q12.79 0.1 11.16-0.05 9.52-0.2 7.86-0.61 6.2-1.03 4.74-1.78 3.27-2.54 2.59-3.71ZM26.66-1.32L26.66-1.32Q26.61-2.34 26.44-4.47 26.27-6.59 26.07-9.25 25.88-11.91 25.68-14.89 25.49-17.87 25.31-20.53 25.14-23.19 25-25.32 24.85-27.44 24.8-28.47L24.8-28.47Q24.75-28.91 24.73-30 24.7-31.1 24.66-32.35 24.61-33.59 24.58-34.69 24.56-35.79 24.56-36.23L24.56-36.23Q25.24-36.23 25.78-35.96 26.32-35.69 26.66-35.06L26.66-35.06Q26.76-34.03 26.88-32.15 27-30.27 27.15-27.83 27.29-25.39 27.46-22.61 27.63-19.82 27.78-17.09L27.78-17.09Q27.93-17.33 28.07-17.53 28.22-17.72 28.27-17.77L28.27-17.77Q28.81-18.36 29.54-19.14 30.27-19.92 31.08-20.75 31.88-21.58 32.69-22.39 33.49-23.19 34.15-23.85 34.81-24.51 35.25-24.9 35.69-25.29 35.79-25.29L35.79-25.29 37.64-24.37Q36.81-23.63 35.74-22.66 34.67-21.68 33.64-20.58 32.61-19.48 31.66-18.29 30.71-17.09 30.12-15.92L30.12-15.92Q30.12-15.87 30.1-15.7 30.08-15.53 30.08-15.43L30.08-15.43Q30.08-15.38 30.1-15.21 30.12-15.04 30.12-14.99L30.12-14.99 41.4-1.86Q41.4-1.81 41.43-1.66 41.45-1.51 41.45-1.42L41.45-1.42Q41.45-0.49 40.48 0L40.48 0 28.27-14.06Q28.22-14.11 28.15-14.23 28.07-14.36 27.98-14.5L27.98-14.5 28.51-5.03Q28.51-4.79 28.54-4.1 28.56-3.42 28.59-2.61 28.61-1.81 28.64-1.1 28.66-0.39 28.66-0.15L28.66-0.15Q28.02-0.15 27.49-0.42 26.95-0.68 26.66-1.32ZM46.82 0.1L46.09-18.95Q46.67-18.95 47.09-18.99 47.5-19.04 47.8-18.51L47.8-18.51Q47.94-16.31 48.14-14.04 48.33-11.77 48.53-9.47 48.73-7.18 48.8-4.86 48.87-2.54 48.82-0.34L48.82-0.34Q48.82-0.05 48.68 0.02 48.53 0.1 48.26 0.07 47.99 0.05 47.63 0.02 47.26 0 46.82 0.1L46.82 0.1ZM43.26-27.69L43.26-27.69Q43.26-28.03 43.31-28.44 43.35-28.86 43.53-29.2 43.7-29.54 43.96-29.79 44.23-30.03 44.62-30.03L44.62-30.03Q45.21-30.03 45.8-29.98 46.38-29.93 46.92-29.76 47.46-29.59 47.8-29.22 48.14-28.86 48.14-28.17L48.14-28.17Q48.14-27 47.26-26.1 46.38-25.2 45.11-25.2L45.11-25.2Q44.14-25.2 43.7-25.95 43.26-26.71 43.26-27.69ZM46.09-27.44L46.09-27.44Q45.94-27.44 45.94-27.2 45.94-26.95 46.09-26.95L46.09-26.95Q46.28-26.95 46.28-27.2 46.28-27.44 46.09-27.44ZM52.04-37.94L52.04-37.94Q52.73-37.84 53.24-37.57 53.75-37.3 54.05-36.62L54.05-36.62Q54.05-35.69 54.12-34.06 54.19-32.42 54.26-30.27 54.34-28.13 54.44-25.63 54.53-23.14 54.63-20.61 54.73-18.07 54.8-15.58 54.88-13.09 54.95-10.94 55.02-8.79 55.07-7.13 55.12-5.47 55.17-4.59L55.17-4.59Q55.17-4.49 55.14-4.25 55.12-4 55.1-3.66 55.07-3.32 55.05-3 55.02-2.69 55.02-2.54L55.02-2.54Q54.97-2.25 54.97-1.83 54.97-1.42 54.88-1.03 54.78-0.63 54.56-0.32 54.34 0 53.85 0.05L53.85 0.05 53.02-0.98Q52.97-1.03 52.9-2.81 52.82-4.59 52.7-7.45 52.58-10.3 52.48-13.89 52.39-17.48 52.26-21.14 52.14-24.8 52.04-28.17 51.95-31.54 51.9-33.98L51.9-33.98Q51.9-34.18 51.92-34.77 51.95-35.35 51.97-35.96 51.99-36.57 52.02-37.13 52.04-37.7 52.04-37.94ZM59.12-37.94L59.12-37.94Q59.8-37.84 60.32-37.57 60.83-37.3 61.12-36.62L61.12-36.62Q61.12-35.69 61.2-34.06 61.27-32.42 61.34-30.27 61.42-28.13 61.51-25.63 61.61-23.14 61.71-20.61 61.81-18.07 61.88-15.58 61.95-13.09 62.03-10.94 62.1-8.79 62.15-7.13 62.2-5.47 62.25-4.59L62.25-4.59Q62.25-4.49 62.22-4.25 62.2-4 62.17-3.66 62.15-3.32 62.12-3 62.1-2.69 62.1-2.54L62.1-2.54Q62.05-2.25 62.05-1.83 62.05-1.42 61.95-1.03 61.86-0.63 61.64-0.32 61.42 0 60.93 0.05L60.93 0.05 60.1-0.98Q60.05-1.03 59.98-2.81 59.9-4.59 59.78-7.45 59.66-10.3 59.56-13.89 59.46-17.48 59.34-21.14 59.22-24.8 59.12-28.17 59.02-31.54 58.97-33.98L58.97-33.98Q58.97-34.18 59-34.77 59.02-35.35 59.05-35.96 59.07-36.57 59.1-37.13 59.12-37.7 59.12-37.94ZM86.31-3.96L86.31-3.96Q87.19-3.96 87.95-3.61 88.71-3.27 89.44-2.86 90.17-2.44 90.93-2.12 91.68-1.81 92.56-1.81L92.56-1.81Q93.59-1.81 94.69-2.17 95.79-2.54 96.71-3.2 97.64-3.86 98.23-4.81 98.81-5.76 98.81-6.88L98.81-6.88Q98.86-7.23 98.84-7.71 98.81-8.2 98.52-8.72 98.23-9.23 97.54-9.69 96.86-10.16 95.57-10.4 94.27-10.64 92.32-10.67 90.37-10.69 87.49-10.3L87.49-10.3Q86.75-10.3 86.07-10.72 85.39-11.13 84.85-11.74 84.31-12.35 83.97-13.06 83.63-13.77 83.63-14.4L83.63-14.4Q83.63-16.31 84.43-17.5 85.24-18.7 86.51-19.41 87.78-20.12 89.34-20.41 90.9-20.7 92.51-20.7L92.51-20.7Q93.25-20.7 94.2-20.63 95.15-20.56 95.96-20.24 96.76-19.92 97.32-19.24 97.89-18.55 97.89-17.33L97.89-17.33Q97.79-16.5 97.62-16.33 97.45-16.16 97.13-16.43 96.81-16.7 96.37-17.19 95.93-17.68 95.32-18.14 94.71-18.6 93.86-18.85 93-19.09 91.93-18.85L91.93-18.85Q90.81-18.85 89.68-18.63 88.56-18.41 87.66-17.87 86.75-17.33 86.19-16.41 85.63-15.48 85.63-14.06L85.63-14.06Q85.63-13.33 86.29-13.06 86.95-12.79 88.05-12.79 89.15-12.79 90.54-12.87 91.93-12.94 93.39-12.94 94.86-12.94 96.23-12.72 97.59-12.5 98.64-11.84 99.69-11.18 100.28-9.96 100.86-8.74 100.72-6.79L100.72-6.79Q100.72-5.37 99.91-4.1 99.11-2.83 97.86-1.88 96.62-0.93 95.1-0.39 93.59 0.15 92.17 0L92.17 0Q91.59-0.05 90.59-0.32 89.58-0.59 88.63-1.07 87.68-1.56 87-2.27 86.31-2.98 86.31-3.96ZM104.62-12.65L104.62-12.65Q104.43-12.5 104.08-12.55 103.74-12.6 103.45-12.72 103.16-12.84 102.94-13.06 102.72-13.28 102.72-13.57L102.72-13.57Q102.72-15.23 103.74-16.63 104.77-18.02 106.28-19.02 107.8-20.02 109.5-20.58 111.21-21.14 112.63-21.14L112.63-21.14Q114.88-21.14 116.71-20.39 118.54-19.63 119.83-18.31 121.13-16.99 121.83-15.23 122.54-13.48 122.54-11.47L122.54-11.47Q122.59-8.94 121.39-6.84 120.2-4.74 118.27-3.25 116.34-1.76 113.97-1 111.6-0.24 109.31-0.44L109.31-0.44Q109.41 1.32 109.26 3.59 109.11 5.86 108.87 8.54 108.63 11.23 108.26 14.23 107.89 17.24 107.5 20.41L107.5 20.41Q107.5 20.46 107.21 20.46 106.92 20.46 106.6 20.39 106.28 20.31 105.96 20.24 105.65 20.17 105.6 20.21L105.6 20.21Q105.94 16.16 106.13 12.01 106.33 7.86 106.28 3.69 106.23-0.49 105.84-4.59 105.45-8.69 104.62-12.65ZM112.04-18.41L112.04-18.41Q111.12-18.36 110.04-18.14 108.97-17.92 108.14-17.48 107.31-17.04 106.82-16.31 106.33-15.58 106.48-14.5L106.48-14.5Q106.57-14.01 106.75-13.09 106.92-12.16 107.14-10.99 107.36-9.81 107.58-8.54 107.8-7.28 108.01-6.1 108.23-4.93 108.41-3.98 108.58-3.03 108.67-2.54L108.67-2.54Q109.26-2.64 110.33-2.73 111.41-2.83 112.63-3.13 113.85-3.42 115.14-3.93 116.44-4.44 117.56-5.37 118.68-6.3 119.54-7.69 120.39-9.08 120.69-11.13L120.69-11.13Q120.69-13.04 120-14.4 119.32-15.77 118.15-16.67 116.97-17.58 115.39-17.99 113.8-18.41 112.04-18.41ZM125.13-4.2L125.13-4.2Q125.13-6.98 126.66-8.25 128.2-9.52 130.69-9.52L130.69-9.52Q131.67-9.52 132.52-9.47 133.38-9.42 134.16-9.23 134.94-9.03 135.7-8.64 136.45-8.25 137.28-7.52L137.28-7.52Q137.28-7.67 137.31-8.13 137.33-8.59 137.33-9.13 137.33-9.67 137.33-10.13 137.33-10.6 137.33-10.79L137.33-10.79Q137.28-11.67 137.28-13.06 137.28-14.45 137.06-15.92 136.85-17.38 136.19-18.7 135.53-20.02 134.06-20.7L134.06-20.7Q133.04-20.7 132.16-20.36 131.28-20.02 130.4-19.63 129.52-19.24 128.64-18.92 127.76-18.6 126.74-18.6L126.74-18.6Q126.74-19.82 127.49-20.63 128.25-21.44 129.33-21.88 130.4-22.31 131.57-22.46 132.74-22.61 133.62-22.61L133.62-22.61Q134.5-22.46 135.26-22.27 136.02-22.07 136.67-21.48 137.33-20.9 137.9-19.7 138.46-18.51 138.87-16.36 139.29-14.21 139.6-10.91 139.92-7.62 140.12-2.83L140.12-2.83Q140.21-2.2 139.7-1.73 139.19-1.27 138.31-0.95 137.43-0.63 136.33-0.42 135.23-0.2 134.11-0.1 132.99 0 131.96 0.05 130.94 0.1 130.25 0.1L130.25 0.1Q129.37 0.1 128.47-0.2 127.57-0.49 126.81-1.05 126.05-1.61 125.59-2.42 125.13-3.22 125.13-4.2ZM131.47-7.62L131.47-7.62Q129.03-6.93 128.06-5.98 127.08-5.03 127.2-4.15 127.32-3.27 128.35-2.56 129.37-1.86 130.84-1.64 132.3-1.42 134.01-1.88 135.72-2.34 137.28-3.71L137.28-3.71Q136.7-5.13 136.11-5.88 135.53-6.64 134.84-7.03 134.16-7.42 133.33-7.52 132.5-7.62 131.47-7.62ZM141.73-19.04L141.73-19.04Q142.31-19.29 142.75-19.14 143.19-18.99 143.48-18.6 143.78-18.21 143.92-17.7 144.07-17.19 144.17-16.7L144.17-16.7Q144.8-17.77 146-18.43 147.19-19.09 148.56-19.31 149.93-19.53 151.3-19.41 152.66-19.29 153.62-18.82 154.57-18.36 154.96-17.55 155.35-16.75 154.76-15.67L154.76-15.67Q153.49-16.41 152.1-16.85 150.71-17.29 149.39-17.14 148.07-16.99 146.95-16.14 145.83-15.28 145.09-13.43 144.36-11.57 144.19-8.52 144.02-5.47 144.61-0.93L144.61-0.93 142.75-0.93Q142.75-0.93 142.68-1.73 142.6-2.54 142.53-3.86 142.46-5.18 142.34-6.79 142.21-8.4 142.12-10.06 142.02-11.72 141.95-13.26 141.87-14.79 141.77-15.92L141.77-15.92Q141.77-16.06 141.75-16.5 141.73-16.94 141.73-17.46 141.73-17.97 141.73-18.41 141.73-18.85 141.73-19.04ZM158.76-1.32L158.76-1.32Q158.72-2.34 158.54-4.47 158.37-6.59 158.18-9.25 157.98-11.91 157.79-14.89 157.59-17.87 157.42-20.53 157.25-23.19 157.1-25.32 156.96-27.44 156.91-28.47L156.91-28.47Q156.86-28.91 156.84-30 156.81-31.1 156.76-32.35 156.71-33.59 156.69-34.69 156.66-35.79 156.66-36.23L156.66-36.23Q157.35-36.23 157.89-35.96 158.42-35.69 158.76-35.06L158.76-35.06Q158.86-34.03 158.98-32.15 159.11-30.27 159.25-27.83 159.4-25.39 159.57-22.61 159.74-19.82 159.89-17.09L159.89-17.09Q160.03-17.33 160.18-17.53 160.33-17.72 160.38-17.77L160.38-17.77Q160.91-18.36 161.64-19.14 162.38-19.92 163.18-20.75 163.99-21.58 164.79-22.39 165.6-23.19 166.26-23.85 166.92-24.51 167.36-24.9 167.8-25.29 167.89-25.29L167.89-25.29 169.75-24.37Q168.92-23.63 167.85-22.66 166.77-21.68 165.75-20.58 164.72-19.48 163.77-18.29 162.82-17.09 162.23-15.92L162.23-15.92Q162.23-15.87 162.21-15.7 162.18-15.53 162.18-15.43L162.18-15.43Q162.18-15.38 162.21-15.21 162.23-15.04 162.23-14.99L162.23-14.99 173.51-1.86Q173.51-1.81 173.53-1.66 173.56-1.51 173.56-1.42L173.56-1.42Q173.56-0.49 172.58 0L172.58 0 160.38-14.06Q160.33-14.11 160.25-14.23 160.18-14.36 160.08-14.5L160.08-14.5 160.62-5.03Q160.62-4.79 160.64-4.1 160.67-3.42 160.69-2.61 160.72-1.81 160.74-1.1 160.77-0.39 160.77-0.15L160.77-0.15Q160.13-0.15 159.59-0.42 159.06-0.68 158.76-1.32ZM177.07-37.94L177.07-37.94Q177.76-37.84 178.27-37.57 178.78-37.3 179.07-36.62L179.07-36.62Q179.07-35.69 179.15-34.06 179.22-32.42 179.29-30.27 179.37-28.13 179.46-25.63 179.56-23.14 179.66-20.61 179.76-18.07 179.83-15.58 179.9-13.09 179.98-10.94 180.05-8.79 180.1-7.13 180.15-5.47 180.2-4.59L180.2-4.59Q180.2-4.49 180.17-4.25 180.15-4 180.12-3.66 180.1-3.32 180.08-3 180.05-2.69 180.05-2.54L180.05-2.54Q180-2.25 180-1.83 180-1.42 179.9-1.03 179.81-0.63 179.59-0.32 179.37 0 178.88 0.05L178.88 0.05 178.05-0.98Q178-1.03 177.93-2.81 177.85-4.59 177.73-7.45 177.61-10.3 177.51-13.89 177.41-17.48 177.29-21.14 177.17-24.8 177.07-28.17 176.97-31.54 176.93-33.98L176.93-33.98Q176.93-34.18 176.95-34.77 176.97-35.35 177-35.96 177.02-36.57 177.05-37.13 177.07-37.7 177.07-37.94ZM183.27-11.47L183.27-11.47Q183.27-12.94 183.91-14.72 184.54-16.5 185.64-18.04 186.74-19.58 188.13-20.63 189.52-21.68 191.03-21.68L191.03-21.68Q191.86-21.68 192.67-21.34 193.48-21 194.23-20.43 194.99-19.87 195.6-19.17 196.21-18.46 196.55-17.68 196.89-16.89 196.92-16.16 196.94-15.43 196.5-14.89L196.5-14.89 186.2-12.99Q186.01-12.94 185.86-12.52 185.71-12.11 185.61-11.47 185.52-10.84 185.44-10.08 185.37-9.33 185.32-8.62 185.27-7.91 185.27-7.35 185.27-6.79 185.27-6.49L185.27-6.49Q185.27-5.13 185.93-4.27 186.59-3.42 187.62-2.98 188.64-2.54 189.94-2.39 191.23-2.25 192.5-2.25 193.77-2.25 194.89-2.34 196.01-2.44 196.75-2.44L196.75-2.44Q196.75-2.25 196.6-2 196.45-1.76 196.26-1.54 196.06-1.32 195.87-1.15 195.67-0.98 195.62-0.93L195.62-0.93Q195.23-0.83 194.43-0.66 193.62-0.49 192.72-0.34 191.82-0.2 191.03-0.1 190.25 0 189.96 0L189.96 0Q188.45 0.29 187.32-0.05 186.2-0.39 185.42-1.22 184.64-2.05 184.15-3.25 183.66-4.44 183.42-5.81 183.17-7.18 183.15-8.64 183.12-10.11 183.27-11.47ZM190.35-19.82L190.35-19.82Q189.91-19.82 189.2-19.36 188.5-18.9 187.89-18.19 187.27-17.48 186.86-16.67 186.44-15.87 186.59-15.28L186.59-15.28Q187.86-15.14 189.23-15.33 190.6-15.53 191.72-15.94 192.84-16.36 193.57-16.92 194.31-17.48 194.28-18.07 194.26-18.65 193.35-19.12 192.45-19.58 190.35-19.82Z" opacity="1" transform="matrix(1,0,0,1,0,0)" fill="#0088ff" class="wordmark-text-0" data-fill-palette-color="primary" id="text-0"></path></svg></g></svg></g></svg></g></svg></g><g transform="matrix(1,0,0,1,56.554319860205325,0)"><svg viewBox="0 0 78.89136027958935 78.93280607409348" height="78.93280607409348" width="78.89136027958935"><g><svg xmlns="http://www.w3.org/2000/svg" xmlns:xlink="http://www.w3.org/1999/xlink" version="1.1" x="0" y="0" viewBox="5.018923855757735 5 89.95274307742372 90" style="enable-background:new 0 0 100 100;" xml:space="preserve" height="78.93280607409348" width="78.89136027958935" class="icon-icon-0" data-fill-palette-color="accent" id="icon-0"></svg></g></svg></g><g></g></svg></g></svg></g></svg></g></svg></g><defs></defs><mask id="7a5cd577-a465-49f6-806a-064ca9a79897"><g id="SvgjsG3521"><svg viewBox="0 0 320 360" height="360" width="320"><g><svg></svg></g><g><svg viewBox="0 0 320 360" height="360" width="320"><g><path transform="translate(-74.99272,-51.79039) scale(4.65793,4.65793)" d="M20.6 59.9l0.8 1-0.4-1.3c-0.1-0.6-0.8 0.1-0.4 0.3M21.5 59.3c0.3 0.5 0.6 1 0.6 1.5 0 0.7 0.6 1 1.1 1.2-0.7-0.8-1.1-3-1.7-2.7M59.9 16.9c1.7 0 3.3-0.2 5.1 0.2 4.4 1.1 8.1 3.3 10.6 6.4l7 11.2c0.3 2.8 0.9 5.9 0.8 9.3 0.7 0 0.6-1 1.4-1.2-0.8 2-1.2 4.5-1.4 7.4-0.5-1.6 0-4 0.1-5.3-0.7 1.1-1.1 0.3-1.1-0.2 0.1-0.8-0.3-0.7-0.6-1-1.1-1-1.8-2.1-2.6-3.8 0.5-1.3 0.6-3.2-1-4.2-0.5-0.3-1.1-0.8-1.4-1.6-0.4-1.1-1.1-2.4-0.9-4.1 0.1-0.5-1.5 1.1-2.4 0.4-3.9-2.7-7.8-5.8-12.5-8.4-2.5 0-4.3-0.9-5.2-2-0.8-1-0.2-2.3 1-2.4 0.7 0 1.5-0.2 2.1 0.2 0.1-0.4 0.5-0.9 1-0.9M50 14.6l0.2 0.1c1 0.2 1.5 1.6 2.6 1.1 0 0.7 0.1 1.4-0.1 1.9-0.3 0.8-1.2 0.8-1.9 0.8-6.7-0.4-10.6 2.4-14.7 4.8-1.1 0.7-2.3 1.2-3.2 2.1-4.3 4-9 7.7-10.1 15.1l-0.9 8.2c-0.1 0.9-1.1 1.8-0.9 2.9l0.7 4.9c-0.7-0.7-1.1 0.2-0.9 0.6 0.1 0.3 0.5 1.3 1.1 0.4 0.8 1.5 1.6 4.4 2.7 5.7 3.4 4 7.8 7.6 11.4 11.2 0.9-0.2 1.6-0.2 1.8-0.8 0.3 0.6-0.3 1.2-0.8 1.3 1.6 1 3.4 1.9 5.8 2.1 3.1 0.2 6 0.7 8.7 1.4 1.4-0.4 2.8-0.6 4.3-0.7 0.5 0 0.8-0.8 1.4-1l0.1-1c0.6 0.9 0.5-0.3 0.1-0.9 0.7 0.6 0.9 1.1 1.2 1.5 0-0.3 0.8-1.4 0.8-0.1l0.2-1.3c0.3-0.2 0.4 1.1 0.7 0.2 0.3-0.9 0.9-0.2 1.5-0.5-0.2 0.4-0.1 1.2 0.6 0.7l0.8-0.7c0.5 1.2 1.3 0.7 1.7 0.5 4.4-2.8 8.8-6.1 13-9.4l-0.1 1.3 0.5-1.6c0.5 0.5 0.9 0.1 1.1-0.2 0.6-1 1.4-2 2.7-2.9-1.6 4.3-3.5 7.7-5.9 10.5l-1 1.2c0 0.7-0.2 1.6-1 1.7-0.4 0.1-1.2-0.2-1.8 0.4-0.3 0.4 0.7 1.2-0.1 0.6-0.7-0.5-1.4 0-2.2 0.2-0.6 0.2 0.4 0.8 0.6 1.2 0.2 0.4 0.4 0.8 0.3 1.3l-1.1-1.2c-1.3 0.7-2.1 2-3.2 3-0.5 0.4-0.3 1.1-0.3 1.7-0.7 0-1.5-0.2-1.9 0.2-0.3 0.4-0.2 1-0.2 1.6-1-0.1-1.1-1.6-2-1.3-0.9 0.2-1.9 0.3-2.7 0.8 0.6 1.2-1 0.5-0.8 0.7-1.5-0.9-2.8-1.6-4.4-1-3.4-1.1-7.6-0.6-10.7-0.2 0-0.5 0.1-1-0.1-1.1-0.2 0.5-0.8 0.3-0.7 0.3-1.9-1.3-3.8-2.1-5.8-3.2-1.8 0.2-3.5-0.7-4-1.2-1.4-1.3-3-0.6-4.3-0.9-2.8-0.7-3.8-3.6-4.1-5.6-0.2-1-1-1.4-1.3-1.3-1.3-4.2-3.3-8-4.9-11.9-0.4-1-0.3-2-0.3-3.1 0.5 0.2 1 0.1 0.9-0.6-0.5-3.3-1.7-5.8-3-8.2 0.7-3.4 0.8-7.4 2.4-10.4 1.4-2.7 4-4.1 5.8-6.4 0.6-0.8 0.6-1.9 1.2-2.6 2-2 4-4.1 6.2-5.9 1-0.8 2.2 0 3.7-0.3 0.5-1.8 2.5-3.4 4.4-2.9 0.8 0.2 2.4-1.9 2.9-2.1 0.8-0.3 0.4 0.8 0.4 1.5 1.9-1.5 4.5-2.3 6.9-3.2" fill="black" fill-rule="nonzero" stroke="none" stroke-width="1" stroke-linecap="butt" stroke-linejoin="miter" stroke-miterlimit="10" stroke-dasharray="" stroke-dashoffset="0" font-family="none" font-weight="none" font-size="none" text-anchor="none" style="mix-blend-mode: normal"></path></g><g transform="matrix(1,0,0,1,64,107.8089237112711)"><svg viewBox="0 0 192 144.3821525774578" height="144.3821525774578" width="192"><g><svg viewBox="0 0 192 144.3821525774578" height="144.3821525774578" width="192"><g><svg viewBox="0 0 192 144.3821525774578" height="144.3821525774578" width="192"><g transform="matrix(1,0,0,1,0,87.26724224888075)"><svg viewBox="0 0 192 57.11491032857704" height="57.11491032857704" width="192"><g id="SvgjsG3520"><svg viewBox="0 0 192 57.11491032857704" height="57.11491032857704" width="192" id="SvgjsSvg3519"><g><svg viewBox="0 0 192 57.11491032857704" height="57.11491032857704" width="192"><g transform="matrix(1,0,0,1,0,0)"><svg width="192" viewBox="0.63 -37.94 196.2908695652174 58.4" height="57.11491032857704" data-palette-color="#0088ff"><path d="M2.59-3.71L2.59-3.71Q2.83-4.3 3.34-4.44 3.86-4.59 4.44-3.71L4.44-3.71Q4.44-3.61 4.91-3.44 5.37-3.27 6.08-3.05 6.79-2.83 7.74-2.61 8.69-2.39 9.62-2.22 10.55-2.05 11.43-1.93 12.3-1.81 12.94-1.81L12.94-1.81Q14.6-1.81 15.99-2.51 17.38-3.22 18.38-4.35 19.38-5.47 19.92-6.91 20.46-8.35 20.46-9.86L20.46-9.86Q20.46-10.3 20.31-11.4 20.17-12.5 19.82-13.6 19.48-14.7 18.92-15.58 18.36-16.46 17.58-16.46L17.58-16.46Q12.5-15.87 9.25-15.99 6.01-16.11 4.1-16.75 2.2-17.38 1.44-18.48 0.68-19.58 0.63-21L0.63-21Q0.63-22.75 1.51-24.39 2.39-26.03 3.76-27.29 5.13-28.56 6.81-29.32 8.5-30.08 10.16-30.08L10.16-30.08Q11.52-30.08 13.01-29.74 14.5-29.39 15.77-28.69 17.04-27.98 17.85-26.83 18.65-25.68 18.65-24.07L18.65-24.07Q17.48-24.07 16.5-24.73 15.53-25.39 14.55-26.12 13.57-26.86 12.5-27.51 11.43-28.17 10.01-28.17L10.01-28.17Q8.84-28.17 7.64-27.59 6.45-27 5.49-26.07 4.54-25.15 3.93-24 3.32-22.85 3.32-21.63L3.32-21.63Q3.32-21.14 3.34-20.58 3.37-20.02 3.56-19.51 3.76-18.99 4.17-18.65 4.59-18.31 5.37-18.31L5.37-18.31 18.51-18.31Q19.34-18.31 19.95-17.8 20.56-17.29 20.97-16.5 21.39-15.72 21.66-14.75 21.92-13.77 22.09-12.84 22.27-11.91 22.31-11.11 22.36-10.3 22.36-9.86L22.36-9.86Q22.36-7.96 21.83-6.27 21.29-4.59 20.21-3.25 19.14-1.9 17.53-1.05 15.92-0.2 13.82 0L13.82 0Q12.79 0.1 11.16-0.05 9.52-0.2 7.86-0.61 6.2-1.03 4.74-1.78 3.27-2.54 2.59-3.71ZM26.66-1.32L26.66-1.32Q26.61-2.34 26.44-4.47 26.27-6.59 26.07-9.25 25.88-11.91 25.68-14.89 25.49-17.87 25.31-20.53 25.14-23.19 25-25.32 24.85-27.44 24.8-28.47L24.8-28.47Q24.75-28.91 24.73-30 24.7-31.1 24.66-32.35 24.61-33.59 24.58-34.69 24.56-35.79 24.56-36.23L24.56-36.23Q25.24-36.23 25.78-35.96 26.32-35.69 26.66-35.06L26.66-35.06Q26.76-34.03 26.88-32.15 27-30.27 27.15-27.83 27.29-25.39 27.46-22.61 27.63-19.82 27.78-17.09L27.78-17.09Q27.93-17.33 28.07-17.53 28.22-17.72 28.27-17.77L28.27-17.77Q28.81-18.36 29.54-19.14 30.27-19.92 31.08-20.75 31.88-21.58 32.69-22.39 33.49-23.19 34.15-23.85 34.81-24.51 35.25-24.9 35.69-25.29 35.79-25.29L35.79-25.29 37.64-24.37Q36.81-23.63 35.74-22.66 34.67-21.68 33.64-20.58 32.61-19.48 31.66-18.29 30.71-17.09 30.12-15.92L30.12-15.92Q30.12-15.87 30.1-15.7 30.08-15.53 30.08-15.43L30.08-15.43Q30.08-15.38 30.1-15.21 30.12-15.04 30.12-14.99L30.12-14.99 41.4-1.86Q41.4-1.81 41.43-1.66 41.45-1.51 41.45-1.42L41.45-1.42Q41.45-0.49 40.48 0L40.48 0 28.27-14.06Q28.22-14.11 28.15-14.23 28.07-14.36 27.98-14.5L27.98-14.5 28.51-5.03Q28.51-4.79 28.54-4.1 28.56-3.42 28.59-2.61 28.61-1.81 28.64-1.1 28.66-0.39 28.66-0.15L28.66-0.15Q28.02-0.15 27.49-0.42 26.95-0.68 26.66-1.32ZM46.82 0.1L46.09-18.95Q46.67-18.95 47.09-18.99 47.5-19.04 47.8-18.51L47.8-18.51Q47.94-16.31 48.14-14.04 48.33-11.77 48.53-9.47 48.73-7.18 48.8-4.86 48.87-2.54 48.82-0.34L48.82-0.34Q48.82-0.05 48.68 0.02 48.53 0.1 48.26 0.07 47.99 0.05 47.63 0.02 47.26 0 46.82 0.1L46.82 0.1ZM43.26-27.69L43.26-27.69Q43.26-28.03 43.31-28.44 43.35-28.86 43.53-29.2 43.7-29.54 43.96-29.79 44.23-30.03 44.62-30.03L44.62-30.03Q45.21-30.03 45.8-29.98 46.38-29.93 46.92-29.76 47.46-29.59 47.8-29.22 48.14-28.86 48.14-28.17L48.14-28.17Q48.14-27 47.26-26.1 46.38-25.2 45.11-25.2L45.11-25.2Q44.14-25.2 43.7-25.95 43.26-26.71 43.26-27.69ZM46.09-27.44L46.09-27.44Q45.94-27.44 45.94-27.2 45.94-26.95 46.09-26.95L46.09-26.95Q46.28-26.95 46.28-27.2 46.28-27.44 46.09-27.44ZM52.04-37.94L52.04-37.94Q52.73-37.84 53.24-37.57 53.75-37.3 54.05-36.62L54.05-36.62Q54.05-35.69 54.12-34.06 54.19-32.42 54.26-30.27 54.34-28.13 54.44-25.63 54.53-23.14 54.63-20.61 54.73-18.07 54.8-15.58 54.88-13.09 54.95-10.94 55.02-8.79 55.07-7.13 55.12-5.47 55.17-4.59L55.17-4.59Q55.17-4.49 55.14-4.25 55.12-4 55.1-3.66 55.07-3.32 55.05-3 55.02-2.69 55.02-2.54L55.02-2.54Q54.97-2.25 54.97-1.83 54.97-1.42 54.88-1.03 54.78-0.63 54.56-0.32 54.34 0 53.85 0.05L53.85 0.05 53.02-0.98Q52.97-1.03 52.9-2.81 52.82-4.59 52.7-7.45 52.58-10.3 52.48-13.89 52.39-17.48 52.26-21.14 52.14-24.8 52.04-28.17 51.95-31.54 51.9-33.98L51.9-33.98Q51.9-34.18 51.92-34.77 51.95-35.35 51.97-35.96 51.99-36.57 52.02-37.13 52.04-37.7 52.04-37.94ZM59.12-37.94L59.12-37.94Q59.8-37.84 60.32-37.57 60.83-37.3 61.12-36.62L61.12-36.62Q61.12-35.69 61.2-34.06 61.27-32.42 61.34-30.27 61.42-28.13 61.51-25.63 61.61-23.14 61.71-20.61 61.81-18.07 61.88-15.58 61.95-13.09 62.03-10.94 62.1-8.79 62.15-7.13 62.2-5.47 62.25-4.59L62.25-4.59Q62.25-4.49 62.22-4.25 62.2-4 62.17-3.66 62.15-3.32 62.12-3 62.1-2.69 62.1-2.54L62.1-2.54Q62.05-2.25 62.05-1.83 62.05-1.42 61.95-1.03 61.86-0.63 61.64-0.32 61.42 0 60.93 0.05L60.93 0.05 60.1-0.98Q60.05-1.03 59.98-2.81 59.9-4.59 59.78-7.45 59.66-10.3 59.56-13.89 59.46-17.48 59.34-21.14 59.22-24.8 59.12-28.17 59.02-31.54 58.97-33.98L58.97-33.98Q58.97-34.18 59-34.77 59.02-35.35 59.05-35.96 59.07-36.57 59.1-37.13 59.12-37.7 59.12-37.94ZM86.31-3.96L86.31-3.96Q87.19-3.96 87.95-3.61 88.71-3.27 89.44-2.86 90.17-2.44 90.93-2.12 91.68-1.81 92.56-1.81L92.56-1.81Q93.59-1.81 94.69-2.17 95.79-2.54 96.71-3.2 97.64-3.86 98.23-4.81 98.81-5.76 98.81-6.88L98.81-6.88Q98.86-7.23 98.84-7.71 98.81-8.2 98.52-8.72 98.23-9.23 97.54-9.69 96.86-10.16 95.57-10.4 94.27-10.64 92.32-10.67 90.37-10.69 87.49-10.3L87.49-10.3Q86.75-10.3 86.07-10.72 85.39-11.13 84.85-11.74 84.31-12.35 83.97-13.06 83.63-13.77 83.63-14.4L83.63-14.4Q83.63-16.31 84.43-17.5 85.24-18.7 86.51-19.41 87.78-20.12 89.34-20.41 90.9-20.7 92.51-20.7L92.51-20.7Q93.25-20.7 94.2-20.63 95.15-20.56 95.96-20.24 96.76-19.92 97.32-19.24 97.89-18.55 97.89-17.33L97.89-17.33Q97.79-16.5 97.62-16.33 97.45-16.16 97.13-16.43 96.81-16.7 96.37-17.19 95.93-17.68 95.32-18.14 94.71-18.6 93.86-18.85 93-19.09 91.93-18.85L91.93-18.85Q90.81-18.85 89.68-18.63 88.56-18.41 87.66-17.87 86.75-17.33 86.19-16.41 85.63-15.48 85.63-14.06L85.63-14.06Q85.63-13.33 86.29-13.06 86.95-12.79 88.05-12.79 89.15-12.79 90.54-12.87 91.93-12.94 93.39-12.94 94.86-12.94 96.23-12.72 97.59-12.5 98.64-11.84 99.69-11.18 100.28-9.96 100.86-8.74 100.72-6.79L100.72-6.79Q100.72-5.37 99.91-4.1 99.11-2.83 97.86-1.88 96.62-0.93 95.1-0.39 93.59 0.15 92.17 0L92.17 0Q91.59-0.05 90.59-0.32 89.58-0.59 88.63-1.07 87.68-1.56 87-2.27 86.31-2.98 86.31-3.96ZM104.62-12.65L104.62-12.65Q104.43-12.5 104.08-12.55 103.74-12.6 103.45-12.72 103.16-12.84 102.94-13.06 102.72-13.28 102.72-13.57L102.72-13.57Q102.72-15.23 103.74-16.63 104.77-18.02 106.28-19.02 107.8-20.02 109.5-20.58 111.21-21.14 112.63-21.14L112.63-21.14Q114.88-21.14 116.71-20.39 118.54-19.63 119.83-18.31 121.13-16.99 121.83-15.23 122.54-13.48 122.54-11.47L122.54-11.47Q122.59-8.94 121.39-6.84 120.2-4.74 118.27-3.25 116.34-1.76 113.97-1 111.6-0.24 109.31-0.44L109.31-0.44Q109.41 1.32 109.26 3.59 109.11 5.86 108.87 8.54 108.63 11.23 108.26 14.23 107.89 17.24 107.5 20.41L107.5 20.41Q107.5 20.46 107.21 20.46 106.92 20.46 106.6 20.39 106.28 20.31 105.96 20.24 105.65 20.17 105.6 20.21L105.6 20.21Q105.94 16.16 106.13 12.01 106.33 7.86 106.28 3.69 106.23-0.49 105.84-4.59 105.45-8.69 104.62-12.65ZM112.04-18.41L112.04-18.41Q111.12-18.36 110.04-18.14 108.97-17.92 108.14-17.48 107.31-17.04 106.82-16.31 106.33-15.58 106.48-14.5L106.48-14.5Q106.57-14.01 106.75-13.09 106.92-12.16 107.14-10.99 107.36-9.81 107.58-8.54 107.8-7.28 108.01-6.1 108.23-4.93 108.41-3.98 108.58-3.03 108.67-2.54L108.67-2.54Q109.26-2.64 110.33-2.73 111.41-2.83 112.63-3.13 113.85-3.42 115.14-3.93 116.44-4.44 117.56-5.37 118.68-6.3 119.54-7.69 120.39-9.08 120.69-11.13L120.69-11.13Q120.69-13.04 120-14.4 119.32-15.77 118.15-16.67 116.97-17.58 115.39-17.99 113.8-18.41 112.04-18.41ZM125.13-4.2L125.13-4.2Q125.13-6.98 126.66-8.25 128.2-9.52 130.69-9.52L130.69-9.52Q131.67-9.52 132.52-9.47 133.38-9.42 134.16-9.23 134.94-9.03 135.7-8.64 136.45-8.25 137.28-7.52L137.28-7.52Q137.28-7.67 137.31-8.13 137.33-8.59 137.33-9.13 137.33-9.67 137.33-10.13 137.33-10.6 137.33-10.79L137.33-10.79Q137.28-11.67 137.28-13.06 137.28-14.45 137.06-15.92 136.85-17.38 136.19-18.7 135.53-20.02 134.06-20.7L134.06-20.7Q133.04-20.7 132.16-20.36 131.28-20.02 130.4-19.63 129.52-19.24 128.64-18.92 127.76-18.6 126.74-18.6L126.74-18.6Q126.74-19.82 127.49-20.63 128.25-21.44 129.33-21.88 130.4-22.31 131.57-22.46 132.74-22.61 133.62-22.61L133.62-22.61Q134.5-22.46 135.26-22.27 136.02-22.07 136.67-21.48 137.33-20.9 137.9-19.7 138.46-18.51 138.87-16.36 139.29-14.21 139.6-10.91 139.92-7.62 140.12-2.83L140.12-2.83Q140.21-2.2 139.7-1.73 139.19-1.27 138.31-0.95 137.43-0.63 136.33-0.42 135.23-0.2 134.11-0.1 132.99 0 131.96 0.05 130.94 0.1 130.25 0.1L130.25 0.1Q129.37 0.1 128.47-0.2 127.57-0.49 126.81-1.05 126.05-1.61 125.59-2.42 125.13-3.22 125.13-4.2ZM131.47-7.62L131.47-7.62Q129.03-6.93 128.06-5.98 127.08-5.03 127.2-4.15 127.32-3.27 128.35-2.56 129.37-1.86 130.84-1.64 132.3-1.42 134.01-1.88 135.72-2.34 137.28-3.71L137.28-3.71Q136.7-5.13 136.11-5.88 135.53-6.64 134.84-7.03 134.16-7.42 133.33-7.52 132.5-7.62 131.47-7.62ZM141.73-19.04L141.73-19.04Q142.31-19.29 142.75-19.14 143.19-18.99 143.48-18.6 143.78-18.21 143.92-17.7 144.07-17.19 144.17-16.7L144.17-16.7Q144.8-17.77 146-18.43 147.19-19.09 148.56-19.31 149.93-19.53 151.3-19.41 152.66-19.29 153.62-18.82 154.57-18.36 154.96-17.55 155.35-16.75 154.76-15.67L154.76-15.67Q153.49-16.41 152.1-16.85 150.71-17.29 149.39-17.14 148.07-16.99 146.95-16.14 145.83-15.28 145.09-13.43 144.36-11.57 144.19-8.52 144.02-5.47 144.61-0.93L144.61-0.93 142.75-0.93Q142.75-0.93 142.68-1.73 142.6-2.54 142.53-3.86 142.46-5.18 142.34-6.79 142.21-8.4 142.12-10.06 142.02-11.72 141.95-13.26 141.87-14.79 141.77-15.92L141.77-15.92Q141.77-16.06 141.75-16.5 141.73-16.94 141.73-17.46 141.73-17.97 141.73-18.41 141.73-18.85 141.73-19.04ZM158.76-1.32L158.76-1.32Q158.72-2.34 158.54-4.47 158.37-6.59 158.18-9.25 157.98-11.91 157.79-14.89 157.59-17.87 157.42-20.53 157.25-23.19 157.1-25.32 156.96-27.44 156.91-28.47L156.91-28.47Q156.86-28.91 156.84-30 156.81-31.1 156.76-32.35 156.71-33.59 156.69-34.69 156.66-35.79 156.66-36.23L156.66-36.23Q157.35-36.23 157.89-35.96 158.42-35.69 158.76-35.06L158.76-35.06Q158.86-34.03 158.98-32.15 159.11-30.27 159.25-27.83 159.4-25.39 159.57-22.61 159.74-19.82 159.89-17.09L159.89-17.09Q160.03-17.33 160.18-17.53 160.33-17.72 160.38-17.77L160.38-17.77Q160.91-18.36 161.64-19.14 162.38-19.92 163.18-20.75 163.99-21.58 164.79-22.39 165.6-23.19 166.26-23.85 166.92-24.51 167.36-24.9 167.8-25.29 167.89-25.29L167.89-25.29 169.75-24.37Q168.92-23.63 167.85-22.66 166.77-21.68 165.75-20.58 164.72-19.48 163.77-18.29 162.82-17.09 162.23-15.92L162.23-15.92Q162.23-15.87 162.21-15.7 162.18-15.53 162.18-15.43L162.18-15.43Q162.18-15.38 162.21-15.21 162.23-15.04 162.23-14.99L162.23-14.99 173.51-1.86Q173.51-1.81 173.53-1.66 173.56-1.51 173.56-1.42L173.56-1.42Q173.56-0.49 172.58 0L172.58 0 160.38-14.06Q160.33-14.11 160.25-14.23 160.18-14.36 160.08-14.5L160.08-14.5 160.62-5.03Q160.62-4.79 160.64-4.1 160.67-3.42 160.69-2.61 160.72-1.81 160.74-1.1 160.77-0.39 160.77-0.15L160.77-0.15Q160.13-0.15 159.59-0.42 159.06-0.68 158.76-1.32ZM177.07-37.94L177.07-37.94Q177.76-37.84 178.27-37.57 178.78-37.3 179.07-36.62L179.07-36.62Q179.07-35.69 179.15-34.06 179.22-32.42 179.29-30.27 179.37-28.13 179.46-25.63 179.56-23.14 179.66-20.61 179.76-18.07 179.83-15.58 179.9-13.09 179.98-10.94 180.05-8.79 180.1-7.13 180.15-5.47 180.2-4.59L180.2-4.59Q180.2-4.49 180.17-4.25 180.15-4 180.12-3.66 180.1-3.32 180.08-3 180.05-2.69 180.05-2.54L180.05-2.54Q180-2.25 180-1.83 180-1.42 179.9-1.03 179.81-0.63 179.59-0.32 179.37 0 178.88 0.05L178.88 0.05 178.05-0.98Q178-1.03 177.93-2.81 177.85-4.59 177.73-7.45 177.61-10.3 177.51-13.89 177.41-17.48 177.29-21.14 177.17-24.8 177.07-28.17 176.97-31.54 176.93-33.98L176.93-33.98Q176.93-34.18 176.95-34.77 176.97-35.35 177-35.96 177.02-36.57 177.05-37.13 177.07-37.7 177.07-37.94ZM183.27-11.47L183.27-11.47Q183.27-12.94 183.91-14.72 184.54-16.5 185.64-18.04 186.74-19.58 188.13-20.63 189.52-21.68 191.03-21.68L191.03-21.68Q191.86-21.68 192.67-21.34 193.48-21 194.23-20.43 194.99-19.87 195.6-19.17 196.21-18.46 196.55-17.68 196.89-16.89 196.92-16.16 196.94-15.43 196.5-14.89L196.5-14.89 186.2-12.99Q186.01-12.94 185.86-12.52 185.71-12.11 185.61-11.47 185.52-10.84 185.44-10.08 185.37-9.33 185.32-8.62 185.27-7.91 185.27-7.35 185.27-6.79 185.27-6.49L185.27-6.49Q185.27-5.13 185.93-4.27 186.59-3.42 187.62-2.98 188.64-2.54 189.94-2.39 191.23-2.25 192.5-2.25 193.77-2.25 194.89-2.34 196.01-2.44 196.75-2.44L196.75-2.44Q196.75-2.25 196.6-2 196.45-1.76 196.26-1.54 196.06-1.32 195.87-1.15 195.67-0.98 195.62-0.93L195.62-0.93Q195.23-0.83 194.43-0.66 193.62-0.49 192.72-0.34 191.82-0.2 191.03-0.1 190.25 0 189.96 0L189.96 0Q188.45 0.29 187.32-0.05 186.2-0.39 185.42-1.22 184.64-2.05 184.15-3.25 183.66-4.44 183.42-5.81 183.17-7.18 183.15-8.64 183.12-10.11 183.27-11.47ZM190.35-19.82L190.35-19.82Q189.91-19.82 189.2-19.36 188.5-18.9 187.89-18.19 187.27-17.48 186.86-16.67 186.44-15.87 186.59-15.28L186.59-15.28Q187.86-15.14 189.23-15.33 190.6-15.53 191.72-15.94 192.84-16.36 193.57-16.92 194.31-17.48 194.28-18.07 194.26-18.65 193.35-19.12 192.45-19.58 190.35-19.82Z" opacity="1" transform="matrix(1,0,0,1,0,0)" fill="black" class="wordmark-text-0" id="SvgjsPath3518"></path></svg></g></svg></g></svg></g></svg></g><g transform="matrix(1,0,0,1,56.554319860205325,0)"><svg viewBox="0 0 78.89136027958935 78.93280607409348" height="78.93280607409348" width="78.89136027958935"><g><svg xmlns="http://www.w3.org/2000/svg" xmlns:xlink="http://www.w3.org/1999/xlink" version="1.1" x="0" y="0" viewBox="5.018923855757735 5 89.95274307742372 90" style="enable-background:new 0 0 100 100;" xml:space="preserve" height="78.93280607409348" width="78.89136027958935" class="icon-icon-0" data-fill-palette-color="accent" id="SvgjsSvg3517"><path d="M67.39 73.12c0-0.66-0.27-1.311-0.729-1.771-0.931-0.93-2.61-0.93-3.54 0-0.471 0.46-0.73 1.11-0.73 1.771 0 0.649 0.26 1.3 0.73 1.76 0.47 0.47 1.109 0.74 1.77 0.74s1.3-0.271 1.771-0.74C67.12 74.42 67.39 73.78 67.39 73.12z" fill="white"></path><path d="M28.49 69.62c0.54 0 1.09-0.181 1.55-0.54 1.08-0.87 1.26-2.44 0.399-3.521-0.859-1.08-2.43-1.26-3.51-0.39-1.08 0.86-1.26 2.43-0.399 3.51C27.02 69.3 27.75 69.62 28.49 69.62z" fill="white"></path><path d="M77.569 48.49c-1.38-0.051-2.539 1.029-2.59 2.409-0.04 1.381 1.04 2.54 2.41 2.591 0.03 0 0.061 0 0.09 0 1.34 0 2.45-1.061 2.5-2.41C80.03 49.7 78.95 48.54 77.569 48.49z" fill="white"></path><path d="M33.6 30.42c0.521 0 1.05-0.16 1.5-0.49 1.101-0.83 1.33-2.39 0.51-3.5-0.819-1.11-2.39-1.34-3.5-0.51-1.109 0.82-1.34 2.39-0.51 3.49C32.09 30.069 32.84 30.42 33.6 30.42z" fill="white"></path><path d="M29.52 35.66c0.8-1.141 0.521-2.69-0.609-3.49-1.13-0.79-2.69-0.521-3.48 0.61-0.79 1.13-0.52 2.689 0.61 3.489 0.439 0.3 0.939 0.45 1.43 0.45C28.26 36.72 29.04 36.35 29.52 35.66z" fill="white"></path><path d="M41.399 26.37c0.261 0 0.521-0.04 0.78-0.12 1.311-0.44 2.021-1.851 1.59-3.16-0.43-1.31-1.84-2.021-3.149-1.59-1.311 0.43-2.03 1.84-1.601 3.149C39.37 25.71 40.35 26.37 41.399 26.37z" fill="white"></path><path d="M56.38 23.13c-0.44 1.31 0.26 2.72 1.57 3.16 0.27 0.09 0.529 0.13 0.8 0.13 1.04 0 2.02-0.66 2.37-1.7 0.439-1.31-0.271-2.729-1.58-3.17C58.229 21.109 56.81 21.819 56.38 23.13z" fill="white"></path><path d="M77.1 44.67c1.33-0.39 2.09-1.771 1.7-3.101-0.39-1.319-1.78-2.079-3.1-1.699-1.33 0.39-2.091 1.779-1.7 3.1 0.319 1.09 1.319 1.8 2.399 1.8C76.63 44.77 76.87 44.74 77.1 44.67z" fill="white"></path><path d="M68.02 26.02c-1.1-0.83-2.67-0.609-3.5 0.49s-0.609 2.67 0.5 3.5c0.45 0.34 0.98 0.51 1.5 0.51 0.761 0 1.511-0.35 2-1C69.35 28.41 69.13 26.85 68.02 26.02z" fill="white"></path><path d="M23.31 57.12c-1.29 0.47-1.96 1.91-1.479 3.21 0.37 1.01 1.319 1.64 2.35 1.64 0.28 0 0.57-0.05 0.86-0.16 1.29-0.47 1.96-1.91 1.479-3.21C26.04 57.31 24.609 56.64 23.31 57.12z" fill="white"></path><path d="M74.899 61.95c0.29 0.109 0.58 0.159 0.87 0.159 1.021 0 1.971-0.619 2.351-1.63 0.479-1.29-0.181-2.729-1.471-3.21-1.3-0.489-2.739 0.17-3.22 1.46C72.95 60.02 73.6 61.47 74.899 61.95z" fill="white"></path><path d="M74.67 32.92c-0.79-1.13-2.351-1.42-3.48-0.63-1.14 0.79-1.42 2.35-0.63 3.479 0.48 0.7 1.26 1.08 2.05 1.08 0.49 0 0.99-0.149 1.431-0.45C75.17 35.609 75.45 34.05 74.67 32.92z" fill="white"></path><path d="M69.47 65.67c-0.86 1.07-0.689 2.649 0.38 3.52 0.46 0.37 1.021 0.551 1.57 0.551 0.729 0 1.45-0.32 1.95-0.931 0.859-1.08 0.689-2.649-0.38-3.52C71.92 64.43 70.34 64.59 69.47 65.67z" fill="white"></path><path d="M21.25 41.41c-0.4 1.319 0.359 2.71 1.68 3.109 0.24 0.07 0.48 0.11 0.71 0.11 1.08 0 2.08-0.71 2.4-1.79 0.39-1.32-0.36-2.72-1.681-3.11C23.04 39.33 21.64 40.09 21.25 41.41z" fill="white"></path><path d="M22.51 53.34c0.03 0 0.05 0 0.08 0 1.38-0.05 2.46-1.2 2.42-2.58s-1.19-2.46-2.57-2.42-2.47 1.19-2.42 2.57C20.05 52.27 21.17 53.34 22.51 53.34z" fill="white"></path><path d="M47.58 22.49C47.569 23.87 48.689 25 50.069 25c0 0 0 0 0.011 0 1.37 0 2.489-1.11 2.5-2.49 0-1.38-1.11-2.51-2.5-2.51C48.7 20 47.58 21.109 47.58 22.49z" fill="white"></path><path d="M33.3 71.319c-0.47 0.461-0.74 1.11-0.74 1.771 0 0.65 0.271 1.3 0.74 1.76 0.46 0.47 1.1 0.74 1.76 0.74s1.311-0.271 1.771-0.74c0.47-0.47 0.729-1.109 0.729-1.76 0-0.66-0.26-1.3-0.729-1.771C35.899 70.39 34.22 70.39 33.3 71.319z" fill="white"></path><path d="M71.45 79.42c0-0.66-0.271-1.3-0.73-1.771-0.939-0.93-2.61-0.93-3.54 0-0.46 0.471-0.729 1.11-0.729 1.771s0.27 1.3 0.729 1.77c0.47 0.46 1.11 0.73 1.771 0.73 0.659 0 1.3-0.271 1.77-0.73C71.18 80.72 71.45 80.08 71.45 79.42z" fill="white"></path><path d="M16.28 59.729c-1.301 0.471-1.971 1.91-1.49 3.2 0.37 1.01 1.33 1.64 2.35 1.64 0.29 0 0.58-0.05 0.86-0.149 1.3-0.48 1.96-1.92 1.49-3.21C19.01 59.91 17.569 59.25 16.28 59.729z" fill="white"></path><path d="M39.04 19.25c0.26 0 0.52-0.04 0.779-0.13 0 0.01 0 0.01 0 0.01 1.311-0.44 2.021-1.85 1.591-3.16-0.431-1.32-1.841-2.03-3.16-1.59h0.01c-1.32 0.43-2.03 1.84-1.6 3.15C37.01 18.58 37.99 19.25 39.04 19.25z" fill="white"></path><path d="M23.37 31.37c0.79-1.13 0.52-2.69-0.61-3.48-1.13-0.8-2.69-0.52-3.479 0.61-0.801 1.13-0.521 2.689 0.609 3.479 0.43 0.301 0.93 0.45 1.43 0.45C22.109 32.43 22.88 32.06 23.37 31.37z" fill="white"></path><path d="M31.12 20.42c-0.82-1.11-2.391-1.34-3.5-0.51-1.101 0.819-1.33 2.39-0.511 3.5 0.49 0.649 1.24 1 2.011 1 0.52 0 1.04-0.16 1.489-0.49C31.72 23.09 31.939 21.52 31.12 20.42z" fill="white"></path><path d="M50.09 12.5c-1.38 0-2.5 1.109-2.5 2.5-0.01 1.37 1.11 2.5 2.49 2.5s2.5-1.12 2.51-2.49C52.59 13.63 51.47 12.5 50.09 12.5z" fill="white"></path><path d="M15.74 42.399c0.239 0.07 0.479 0.101 0.71 0.101 1.08 0 2.069-0.7 2.399-1.79C19.24 39.39 18.49 38 17.16 37.6c-1.32-0.39-2.71 0.36-3.101 1.69C13.66 40.609 14.41 42 15.74 42.399z" fill="white"></path><path d="M15.09 53.59c1.38-0.05 2.47-1.2 2.43-2.58-0.05-1.38-1.2-2.46-2.58-2.42s-2.46 1.2-2.42 2.58c0.04 1.35 1.15 2.42 2.5 2.42C15.04 53.59 15.069 53.59 15.09 53.59z" fill="white"></path><path d="M58.75 16.01c-0.44 1.31 0.27 2.72 1.58 3.16 0.26 0.09 0.529 0.13 0.79 0.13 1.04 0 2.02-0.66 2.37-1.7 0.439-1.31-0.271-2.729-1.58-3.17C60.6 13.99 59.189 14.7 58.75 16.01z" fill="white"></path><path d="M85.06 48.76c-1.37-0.05-2.529 1.03-2.58 2.41-0.05 1.37 1.03 2.53 2.41 2.58 0.03 0 0.061 0 0.09 0 1.34 0 2.45-1.061 2.5-2.41C87.52 49.96 86.45 48.8 85.06 48.76z" fill="white"></path><path d="M72.52 20.01c-1.1-0.83-2.67-0.61-3.5 0.5-0.83 1.1-0.609 2.67 0.5 3.5 0.44 0.34 0.971 0.5 1.49 0.5 0.76 0 1.51-0.35 2-1C73.84 22.41 73.62 20.84 72.52 20.01z" fill="white"></path><path d="M24.59 70.25c-0.86-1.08-2.44-1.25-3.51-0.391-1.08 0.86-1.261 2.431-0.4 3.511 0.5 0.62 1.22 0.939 1.96 0.939 0.55 0 1.09-0.18 1.561-0.54C25.27 72.899 25.45 71.33 24.59 70.25z" fill="white"></path><path d="M78.83 69.99c-1.07-0.86-2.65-0.7-3.511 0.38-0.869 1.069-0.699 2.649 0.37 3.52 0.471 0.37 1.021 0.55 1.57 0.55 0.73 0 1.45-0.319 1.95-0.93C80.08 72.43 79.91 70.859 78.83 69.99z" fill="white"></path><path d="M81.2 40.859c0.319 1.091 1.31 1.801 2.399 1.801 0.23 0 0.46-0.03 0.7-0.101 1.32-0.39 2.08-1.779 1.7-3.1-0.391-1.33-1.78-2.09-3.101-1.7C81.569 38.14 80.81 39.53 81.2 40.859z" fill="white"></path><path d="M81.93 64.56c0.29 0.11 0.58 0.16 0.87 0.16 1.02 0 1.97-0.62 2.35-1.62 0.48-1.3-0.18-2.74-1.47-3.22-1.3-0.48-2.74 0.18-3.22 1.47C79.979 62.64 80.64 64.08 81.93 64.56z" fill="white"></path><path d="M80.83 28.64c-0.79-1.13-2.351-1.41-3.48-0.63-1.14 0.79-1.42 2.35-0.63 3.48 0.48 0.699 1.26 1.079 2.061 1.079 0.489 0 0.989-0.149 1.42-0.449C81.33 31.33 81.609 29.78 80.83 28.64z" fill="white"></path><path d="M29.22 77.609c-0.46 0.471-0.729 1.11-0.729 1.771s0.27 1.3 0.729 1.77c0.47 0.46 1.11 0.73 1.771 0.73 0.659 0 1.3-0.271 1.77-0.73 0.46-0.47 0.73-1.109 0.73-1.77 0-0.65-0.271-1.3-0.73-1.771C31.819 76.689 30.16 76.68 29.22 77.609z" fill="white"></path><path d="M71.24 83.96c-0.46 0.46-0.73 1.109-0.73 1.77 0 0.65 0.271 1.301 0.73 1.761 0.46 0.47 1.109 0.739 1.77 0.739s1.3-0.27 1.771-0.739c0.46-0.46 0.729-1.11 0.729-1.761 0-0.66-0.27-1.31-0.729-1.77C73.84 83.03 72.17 83.03 71.24 83.96z" fill="white"></path><path d="M9.97 35.46c-1.32-0.391-2.71 0.359-3.11 1.689-0.39 1.32 0.36 2.71 1.69 3.11 0.23 0.07 0.47 0.1 0.71 0.1 1.08 0 2.07-0.699 2.4-1.79C12.05 37.25 11.3 35.859 9.97 35.46z" fill="white"></path><path d="M24.64 18.399c0.521 0 1.04-0.159 1.49-0.5 1.11-0.819 1.33-2.39 0.51-3.5-0.83-1.109-2.39-1.33-3.5-0.51-1.109 0.83-1.33 2.391-0.51 3.5C23.12 18.05 23.87 18.399 24.64 18.399z" fill="white"></path><path d="M37.46 12c0.01 0 0.01 0 0.01 0 1.311-0.431 2.021-1.84 1.59-3.15-0.43-1.319-1.85-2.03-3.16-1.6-1.31 0.439-2.02 1.85-1.59 3.16 0.34 1.05 1.32 1.72 2.37 1.72C36.939 12.13 37.2 12.09 37.46 12z" fill="white"></path><path d="M90.71 62.5c-1.29-0.49-2.73 0.17-3.22 1.47-0.48 1.29 0.18 2.73 1.47 3.21 0.29 0.11 0.59 0.16 0.88 0.16 1.01 0 1.96-0.62 2.34-1.63C92.66 64.42 92 62.979 90.71 62.5z" fill="white"></path><path d="M77.52 17.51c0.82-1.1 0.601-2.67-0.5-3.5-1.1-0.83-2.67-0.61-3.5 0.5-0.83 1.1-0.609 2.67 0.49 3.5 0.01 0 0.01 0 0.01 0 0.44 0.34 0.971 0.5 1.49 0.5C76.27 18.51 77.02 18.16 77.52 17.51z" fill="white"></path><path d="M64.29 7.319c-1.311-0.439-2.73 0.271-3.16 1.58-0.44 1.301 0.26 2.721 1.58 3.16-0.01 0-0.01 0-0.01 0 0.27 0.09 0.529 0.13 0.8 0.13 1.04 0 2.02-0.659 2.37-1.71C66.31 9.17 65.6 7.75 64.29 7.319z" fill="white"></path><path d="M50.1 5c-1.38 0-2.5 1.109-2.5 2.49C47.59 8.88 48.71 10 50.09 10h0.01c1.38 0 2.49-1.12 2.5-2.49C52.6 6.12 51.479 5 50.1 5z" fill="white"></path><path d="M90.79 40.54c0.24 0 0.47-0.03 0.71-0.101 1.319-0.38 2.08-1.77 1.7-3.1-0.391-1.32-1.78-2.08-3.11-1.7-1.32 0.391-2.08 1.78-1.69 3.11C88.71 39.84 89.71 40.54 90.79 40.54z" fill="white"></path><path d="M15.21 74.54c-1.07 0.859-1.25 2.43-0.391 3.51 0.5 0.62 1.221 0.94 1.961 0.94 0.539 0 1.1-0.181 1.56-0.551 1.07-0.859 1.25-2.43 0.39-3.51C17.859 73.85 16.29 73.68 15.21 74.54z" fill="white"></path><path d="M9.24 62.319c-1.301 0.471-1.971 1.91-1.49 3.211 0.38 1.01 1.33 1.63 2.35 1.63 0.29 0 0.58-0.051 0.86-0.15 1.3-0.479 1.96-1.92 1.49-3.21C11.97 62.5 10.53 61.84 9.24 62.319z" fill="white"></path><path d="M10.02 51.25c-0.04-1.38-1.2-2.46-2.58-2.42s-2.46 1.189-2.42 2.569c0.04 1.36 1.15 2.431 2.5 2.431 0.03 0 0.05 0 0.08 0C8.979 53.78 10.06 52.63 10.02 51.25z" fill="white"></path><path d="M84.68 74.689c-1.08-0.87-2.649-0.699-3.52 0.38-0.86 1.07-0.7 2.65 0.38 3.511 0.46 0.38 1.02 0.56 1.569 0.56 0.73 0 1.45-0.32 1.95-0.93C85.92 77.13 85.75 75.56 84.68 74.689z" fill="white"></path><path d="M84.939 28.29c0.49 0 0.99-0.141 1.42-0.44 1.141-0.79 1.421-2.35 0.631-3.479-0.79-1.141-2.351-1.42-3.48-0.63s-1.42 2.34-0.63 3.479C83.37 27.92 84.149 28.29 84.939 28.29z" fill="white"></path><path d="M92.56 49.02c-1.38-0.05-2.54 1.03-2.58 2.41-0.05 1.38 1.021 2.54 2.41 2.59 0.021 0 0.05 0 0.08 0 1.34 0 2.46-1.06 2.5-2.41C95.02 50.229 93.939 49.069 92.56 49.02z" fill="white"></path><path d="M17.22 27.069c0.79-1.13 0.521-2.689-0.61-3.479-1.13-0.79-2.689-0.521-3.479 0.61-0.8 1.13-0.521 2.689 0.61 3.489 0.43 0.301 0.93 0.45 1.43 0.45C15.96 28.14 16.729 27.77 17.22 27.069z" fill="white"></path><path d="M25.149 83.91c-0.46 0.46-0.729 1.109-0.729 1.77s0.27 1.3 0.729 1.76c0.471 0.471 1.11 0.74 1.771 0.74s1.3-0.27 1.76-0.74c0.47-0.46 0.74-1.1 0.74-1.76s-0.271-1.3-0.74-1.77C27.76 82.979 26.08 82.979 25.149 83.91z" fill="white"></path><path d="M72.5 50c0-12.813-10.771-23.166-23.727-22.467C36.969 28.161 27.426 38.306 27.5 50.146c0.049 7.595 3.893 14.599 10.282 18.737C39.171 69.782 40 71.332 40 73.029V85c0 5.514 4.486 10 10 10s10-4.486 10-10V73.03c0-1.701 0.814-3.243 2.179-4.122C68.642 64.741 72.5 57.673 72.5 50zM55 75H45v-1.971c0-3.4-1.683-6.52-4.5-8.344-4.972-3.22-7.962-8.667-8-14.571-0.058-9.21 7.361-17.1 16.539-17.589C49.361 32.509 49.681 32.5 50 32.5c9.649 0 17.5 7.851 17.5 17.5 0 5.967-3.002 11.464-8.03 14.706C56.671 66.51 55 69.622 55 73.03V75zM50 90c-2.757 0-5-2.243-5-5v-5h10v5C55 87.757 52.757 90 50 90z" fill="white"></path><polygon points="58.232,43.232 48,53.465 41.768,47.232 38.232,50.768 48,60.535 61.768,46.768 " fill="white"></polygon></svg></g></svg></g><g></g></svg></g></svg></g></svg></g></svg></g><defs><mask></mask></defs></svg><rect width="320" height="360" fill="black" stroke="none" visibility="hidden"></rect></g></mask><linearGradient x1="0.054" x2="0.941" y1="0.5" y2="0.5" id="e0d30d94-b901-4555-b094-66076b25addc"><stop stop-color="#9c7945" offset="0"></stop><stop stop-color="#faf3aa" offset="0.498"></stop><stop stop-color="#9c7945" offset="1"></stop></linearGradient><rect width="320.000047" height="360" fill="url(#e0d30d94-b901-4555-b094-66076b25addc)" mask="url(#7a5cd577-a465-49f6-806a-064ca9a79897)" data-fill-palette-color="accent"></rect><mask id="ef47f24c-1abb-42f6-960d-7bc6fa31f75c"><g id="SvgjsG3531"><svg viewBox="0 0 320 360" height="360" width="320"><g><svg></svg></g><g><svg viewBox="0 0 320 360" height="360" width="320"><g><path transform="translate(-74.99272,-51.79039) scale(4.65793,4.65793)" d="M20.6 59.9l0.8 1-0.4-1.3c-0.1-0.6-0.8 0.1-0.4 0.3M21.5 59.3c0.3 0.5 0.6 1 0.6 1.5 0 0.7 0.6 1 1.1 1.2-0.7-0.8-1.1-3-1.7-2.7M59.9 16.9c1.7 0 3.3-0.2 5.1 0.2 4.4 1.1 8.1 3.3 10.6 6.4l7 11.2c0.3 2.8 0.9 5.9 0.8 9.3 0.7 0 0.6-1 1.4-1.2-0.8 2-1.2 4.5-1.4 7.4-0.5-1.6 0-4 0.1-5.3-0.7 1.1-1.1 0.3-1.1-0.2 0.1-0.8-0.3-0.7-0.6-1-1.1-1-1.8-2.1-2.6-3.8 0.5-1.3 0.6-3.2-1-4.2-0.5-0.3-1.1-0.8-1.4-1.6-0.4-1.1-1.1-2.4-0.9-4.1 0.1-0.5-1.5 1.1-2.4 0.4-3.9-2.7-7.8-5.8-12.5-8.4-2.5 0-4.3-0.9-5.2-2-0.8-1-0.2-2.3 1-2.4 0.7 0 1.5-0.2 2.1 0.2 0.1-0.4 0.5-0.9 1-0.9M50 14.6l0.2 0.1c1 0.2 1.5 1.6 2.6 1.1 0 0.7 0.1 1.4-0.1 1.9-0.3 0.8-1.2 0.8-1.9 0.8-6.7-0.4-10.6 2.4-14.7 4.8-1.1 0.7-2.3 1.2-3.2 2.1-4.3 4-9 7.7-10.1 15.1l-0.9 8.2c-0.1 0.9-1.1 1.8-0.9 2.9l0.7 4.9c-0.7-0.7-1.1 0.2-0.9 0.6 0.1 0.3 0.5 1.3 1.1 0.4 0.8 1.5 1.6 4.4 2.7 5.7 3.4 4 7.8 7.6 11.4 11.2 0.9-0.2 1.6-0.2 1.8-0.8 0.3 0.6-0.3 1.2-0.8 1.3 1.6 1 3.4 1.9 5.8 2.1 3.1 0.2 6 0.7 8.7 1.4 1.4-0.4 2.8-0.6 4.3-0.7 0.5 0 0.8-0.8 1.4-1l0.1-1c0.6 0.9 0.5-0.3 0.1-0.9 0.7 0.6 0.9 1.1 1.2 1.5 0-0.3 0.8-1.4 0.8-0.1l0.2-1.3c0.3-0.2 0.4 1.1 0.7 0.2 0.3-0.9 0.9-0.2 1.5-0.5-0.2 0.4-0.1 1.2 0.6 0.7l0.8-0.7c0.5 1.2 1.3 0.7 1.7 0.5 4.4-2.8 8.8-6.1 13-9.4l-0.1 1.3 0.5-1.6c0.5 0.5 0.9 0.1 1.1-0.2 0.6-1 1.4-2 2.7-2.9-1.6 4.3-3.5 7.7-5.9 10.5l-1 1.2c0 0.7-0.2 1.6-1 1.7-0.4 0.1-1.2-0.2-1.8 0.4-0.3 0.4 0.7 1.2-0.1 0.6-0.7-0.5-1.4 0-2.2 0.2-0.6 0.2 0.4 0.8 0.6 1.2 0.2 0.4 0.4 0.8 0.3 1.3l-1.1-1.2c-1.3 0.7-2.1 2-3.2 3-0.5 0.4-0.3 1.1-0.3 1.7-0.7 0-1.5-0.2-1.9 0.2-0.3 0.4-0.2 1-0.2 1.6-1-0.1-1.1-1.6-2-1.3-0.9 0.2-1.9 0.3-2.7 0.8 0.6 1.2-1 0.5-0.8 0.7-1.5-0.9-2.8-1.6-4.4-1-3.4-1.1-7.6-0.6-10.7-0.2 0-0.5 0.1-1-0.1-1.1-0.2 0.5-0.8 0.3-0.7 0.3-1.9-1.3-3.8-2.1-5.8-3.2-1.8 0.2-3.5-0.7-4-1.2-1.4-1.3-3-0.6-4.3-0.9-2.8-0.7-3.8-3.6-4.1-5.6-0.2-1-1-1.4-1.3-1.3-1.3-4.2-3.3-8-4.9-11.9-0.4-1-0.3-2-0.3-3.1 0.5 0.2 1 0.1 0.9-0.6-0.5-3.3-1.7-5.8-3-8.2 0.7-3.4 0.8-7.4 2.4-10.4 1.4-2.7 4-4.1 5.8-6.4 0.6-0.8 0.6-1.9 1.2-2.6 2-2 4-4.1 6.2-5.9 1-0.8 2.2 0 3.7-0.3 0.5-1.8 2.5-3.4 4.4-2.9 0.8 0.2 2.4-1.9 2.9-2.1 0.8-0.3 0.4 0.8 0.4 1.5 1.9-1.5 4.5-2.3 6.9-3.2" fill="white" fill-rule="nonzero" stroke="none" stroke-width="1" stroke-linecap="butt" stroke-linejoin="miter" stroke-miterlimit="10" stroke-dasharray="" stroke-dashoffset="0" font-family="none" font-weight="none" font-size="none" text-anchor="none" style="mix-blend-mode: normal"></path></g><g transform="matrix(1,0,0,1,64,107.8089237112711)"><svg viewBox="0 0 192 144.3821525774578" height="144.3821525774578" width="192"><g><svg viewBox="0 0 192 144.3821525774578" height="144.3821525774578" width="192"><g><svg viewBox="0 0 192 144.3821525774578" height="144.3821525774578" width="192"><g transform="matrix(1,0,0,1,0,87.26724224888075)"><svg viewBox="0 0 192 57.11491032857704" height="57.11491032857704" width="192"><g id="SvgjsG3530"><svg viewBox="0 0 192 57.11491032857704" height="57.11491032857704" width="192" id="SvgjsSvg3529"><g><svg viewBox="0 0 192 57.11491032857704" height="57.11491032857704" width="192"><g transform="matrix(1,0,0,1,0,0)"><svg width="192" viewBox="0.63 -37.94 196.2908695652174 58.4" height="57.11491032857704" data-palette-color="#0088ff"><path d="M2.59-3.71L2.59-3.71Q2.83-4.3 3.34-4.44 3.86-4.59 4.44-3.71L4.44-3.71Q4.44-3.61 4.91-3.44 5.37-3.27 6.08-3.05 6.79-2.83 7.74-2.61 8.69-2.39 9.62-2.22 10.55-2.05 11.43-1.93 12.3-1.81 12.94-1.81L12.94-1.81Q14.6-1.81 15.99-2.51 17.38-3.22 18.38-4.35 19.38-5.47 19.92-6.91 20.46-8.35 20.46-9.86L20.46-9.86Q20.46-10.3 20.31-11.4 20.17-12.5 19.82-13.6 19.48-14.7 18.92-15.58 18.36-16.46 17.58-16.46L17.58-16.46Q12.5-15.87 9.25-15.99 6.01-16.11 4.1-16.75 2.2-17.38 1.44-18.48 0.68-19.58 0.63-21L0.63-21Q0.63-22.75 1.51-24.39 2.39-26.03 3.76-27.29 5.13-28.56 6.81-29.32 8.5-30.08 10.16-30.08L10.16-30.08Q11.52-30.08 13.01-29.74 14.5-29.39 15.77-28.69 17.04-27.98 17.85-26.83 18.65-25.68 18.65-24.07L18.65-24.07Q17.48-24.07 16.5-24.73 15.53-25.39 14.55-26.12 13.57-26.86 12.5-27.51 11.43-28.17 10.01-28.17L10.01-28.17Q8.84-28.17 7.64-27.59 6.45-27 5.49-26.07 4.54-25.15 3.93-24 3.32-22.85 3.32-21.63L3.32-21.63Q3.32-21.14 3.34-20.58 3.37-20.02 3.56-19.51 3.76-18.99 4.17-18.65 4.59-18.31 5.37-18.31L5.37-18.31 18.51-18.31Q19.34-18.31 19.95-17.8 20.56-17.29 20.97-16.5 21.39-15.72 21.66-14.75 21.92-13.77 22.09-12.84 22.27-11.91 22.31-11.11 22.36-10.3 22.36-9.86L22.36-9.86Q22.36-7.96 21.83-6.27 21.29-4.59 20.21-3.25 19.14-1.9 17.53-1.05 15.92-0.2 13.82 0L13.82 0Q12.79 0.1 11.16-0.05 9.52-0.2 7.86-0.61 6.2-1.03 4.74-1.78 3.27-2.54 2.59-3.71ZM26.66-1.32L26.66-1.32Q26.61-2.34 26.44-4.47 26.27-6.59 26.07-9.25 25.88-11.91 25.68-14.89 25.49-17.87 25.31-20.53 25.14-23.19 25-25.32 24.85-27.44 24.8-28.47L24.8-28.47Q24.75-28.91 24.73-30 24.7-31.1 24.66-32.35 24.61-33.59 24.58-34.69 24.56-35.79 24.56-36.23L24.56-36.23Q25.24-36.23 25.78-35.96 26.32-35.69 26.66-35.06L26.66-35.06Q26.76-34.03 26.88-32.15 27-30.27 27.15-27.83 27.29-25.39 27.46-22.61 27.63-19.82 27.78-17.09L27.78-17.09Q27.93-17.33 28.07-17.53 28.22-17.72 28.27-17.77L28.27-17.77Q28.81-18.36 29.54-19.14 30.27-19.92 31.08-20.75 31.88-21.58 32.69-22.39 33.49-23.19 34.15-23.85 34.81-24.51 35.25-24.9 35.69-25.29 35.79-25.29L35.79-25.29 37.64-24.37Q36.81-23.63 35.74-22.66 34.67-21.68 33.64-20.58 32.61-19.48 31.66-18.29 30.71-17.09 30.12-15.92L30.12-15.92Q30.12-15.87 30.1-15.7 30.08-15.53 30.08-15.43L30.08-15.43Q30.08-15.38 30.1-15.21 30.12-15.04 30.12-14.99L30.12-14.99 41.4-1.86Q41.4-1.81 41.43-1.66 41.45-1.51 41.45-1.42L41.45-1.42Q41.45-0.49 40.48 0L40.48 0 28.27-14.06Q28.22-14.11 28.15-14.23 28.07-14.36 27.98-14.5L27.98-14.5 28.51-5.03Q28.51-4.79 28.54-4.1 28.56-3.42 28.59-2.61 28.61-1.81 28.64-1.1 28.66-0.39 28.66-0.15L28.66-0.15Q28.02-0.15 27.49-0.42 26.95-0.68 26.66-1.32ZM46.82 0.1L46.09-18.95Q46.67-18.95 47.09-18.99 47.5-19.04 47.8-18.51L47.8-18.51Q47.94-16.31 48.14-14.04 48.33-11.77 48.53-9.47 48.73-7.18 48.8-4.86 48.87-2.54 48.82-0.34L48.82-0.34Q48.82-0.05 48.68 0.02 48.53 0.1 48.26 0.07 47.99 0.05 47.63 0.02 47.26 0 46.82 0.1L46.82 0.1ZM43.26-27.69L43.26-27.69Q43.26-28.03 43.31-28.44 43.35-28.86 43.53-29.2 43.7-29.54 43.96-29.79 44.23-30.03 44.62-30.03L44.62-30.03Q45.21-30.03 45.8-29.98 46.38-29.93 46.92-29.76 47.46-29.59 47.8-29.22 48.14-28.86 48.14-28.17L48.14-28.17Q48.14-27 47.26-26.1 46.38-25.2 45.11-25.2L45.11-25.2Q44.14-25.2 43.7-25.95 43.26-26.71 43.26-27.69ZM46.09-27.44L46.09-27.44Q45.94-27.44 45.94-27.2 45.94-26.95 46.09-26.95L46.09-26.95Q46.28-26.95 46.28-27.2 46.28-27.44 46.09-27.44ZM52.04-37.94L52.04-37.94Q52.73-37.84 53.24-37.57 53.75-37.3 54.05-36.62L54.05-36.62Q54.05-35.69 54.12-34.06 54.19-32.42 54.26-30.27 54.34-28.13 54.44-25.63 54.53-23.14 54.63-20.61 54.73-18.07 54.8-15.58 54.88-13.09 54.95-10.94 55.02-8.79 55.07-7.13 55.12-5.47 55.17-4.59L55.17-4.59Q55.17-4.49 55.14-4.25 55.12-4 55.1-3.66 55.07-3.32 55.05-3 55.02-2.69 55.02-2.54L55.02-2.54Q54.97-2.25 54.97-1.83 54.97-1.42 54.88-1.03 54.78-0.63 54.56-0.32 54.34 0 53.85 0.05L53.85 0.05 53.02-0.98Q52.97-1.03 52.9-2.81 52.82-4.59 52.7-7.45 52.58-10.3 52.48-13.89 52.39-17.48 52.26-21.14 52.14-24.8 52.04-28.17 51.95-31.54 51.9-33.98L51.9-33.98Q51.9-34.18 51.92-34.77 51.95-35.35 51.97-35.96 51.99-36.57 52.02-37.13 52.04-37.7 52.04-37.94ZM59.12-37.94L59.12-37.94Q59.8-37.84 60.32-37.57 60.83-37.3 61.12-36.62L61.12-36.62Q61.12-35.69 61.2-34.06 61.27-32.42 61.34-30.27 61.42-28.13 61.51-25.63 61.61-23.14 61.71-20.61 61.81-18.07 61.88-15.58 61.95-13.09 62.03-10.94 62.1-8.79 62.15-7.13 62.2-5.47 62.25-4.59L62.25-4.59Q62.25-4.49 62.22-4.25 62.2-4 62.17-3.66 62.15-3.32 62.12-3 62.1-2.69 62.1-2.54L62.1-2.54Q62.05-2.25 62.05-1.83 62.05-1.42 61.95-1.03 61.86-0.63 61.64-0.32 61.42 0 60.93 0.05L60.93 0.05 60.1-0.98Q60.05-1.03 59.98-2.81 59.9-4.59 59.78-7.45 59.66-10.3 59.56-13.89 59.46-17.48 59.34-21.14 59.22-24.8 59.12-28.17 59.02-31.54 58.97-33.98L58.97-33.98Q58.97-34.18 59-34.77 59.02-35.35 59.05-35.96 59.07-36.57 59.1-37.13 59.12-37.7 59.12-37.94ZM86.31-3.96L86.31-3.96Q87.19-3.96 87.95-3.61 88.71-3.27 89.44-2.86 90.17-2.44 90.93-2.12 91.68-1.81 92.56-1.81L92.56-1.81Q93.59-1.81 94.69-2.17 95.79-2.54 96.71-3.2 97.64-3.86 98.23-4.81 98.81-5.76 98.81-6.88L98.81-6.88Q98.86-7.23 98.84-7.71 98.81-8.2 98.52-8.72 98.23-9.23 97.54-9.69 96.86-10.16 95.57-10.4 94.27-10.64 92.32-10.67 90.37-10.69 87.49-10.3L87.49-10.3Q86.75-10.3 86.07-10.72 85.39-11.13 84.85-11.74 84.31-12.35 83.97-13.06 83.63-13.77 83.63-14.4L83.63-14.4Q83.63-16.31 84.43-17.5 85.24-18.7 86.51-19.41 87.78-20.12 89.34-20.41 90.9-20.7 92.51-20.7L92.51-20.7Q93.25-20.7 94.2-20.63 95.15-20.56 95.96-20.24 96.76-19.92 97.32-19.24 97.89-18.55 97.89-17.33L97.89-17.33Q97.79-16.5 97.62-16.33 97.45-16.16 97.13-16.43 96.81-16.7 96.37-17.19 95.93-17.68 95.32-18.14 94.71-18.6 93.86-18.85 93-19.09 91.93-18.85L91.93-18.85Q90.81-18.85 89.68-18.63 88.56-18.41 87.66-17.87 86.75-17.33 86.19-16.41 85.63-15.48 85.63-14.06L85.63-14.06Q85.63-13.33 86.29-13.06 86.95-12.79 88.05-12.79 89.15-12.79 90.54-12.87 91.93-12.94 93.39-12.94 94.86-12.94 96.23-12.72 97.59-12.5 98.64-11.84 99.69-11.18 100.28-9.96 100.86-8.74 100.72-6.79L100.72-6.79Q100.72-5.37 99.91-4.1 99.11-2.83 97.86-1.88 96.62-0.93 95.1-0.39 93.59 0.15 92.17 0L92.17 0Q91.59-0.05 90.59-0.32 89.58-0.59 88.63-1.07 87.68-1.56 87-2.27 86.31-2.98 86.31-3.96ZM104.62-12.65L104.62-12.65Q104.43-12.5 104.08-12.55 103.74-12.6 103.45-12.72 103.16-12.84 102.94-13.06 102.72-13.28 102.72-13.57L102.72-13.57Q102.72-15.23 103.74-16.63 104.77-18.02 106.28-19.02 107.8-20.02 109.5-20.58 111.21-21.14 112.63-21.14L112.63-21.14Q114.88-21.14 116.71-20.39 118.54-19.63 119.83-18.31 121.13-16.99 121.83-15.23 122.54-13.48 122.54-11.47L122.54-11.47Q122.59-8.94 121.39-6.84 120.2-4.74 118.27-3.25 116.34-1.76 113.97-1 111.6-0.24 109.31-0.44L109.31-0.44Q109.41 1.32 109.26 3.59 109.11 5.86 108.87 8.54 108.63 11.23 108.26 14.23 107.89 17.24 107.5 20.41L107.5 20.41Q107.5 20.46 107.21 20.46 106.92 20.46 106.6 20.39 106.28 20.31 105.96 20.24 105.65 20.17 105.6 20.21L105.6 20.21Q105.94 16.16 106.13 12.01 106.33 7.86 106.28 3.69 106.23-0.49 105.84-4.59 105.45-8.69 104.62-12.65ZM112.04-18.41L112.04-18.41Q111.12-18.36 110.04-18.14 108.97-17.92 108.14-17.48 107.31-17.04 106.82-16.31 106.33-15.58 106.48-14.5L106.48-14.5Q106.57-14.01 106.75-13.09 106.92-12.16 107.14-10.99 107.36-9.81 107.58-8.54 107.8-7.28 108.01-6.1 108.23-4.93 108.41-3.98 108.58-3.03 108.67-2.54L108.67-2.54Q109.26-2.64 110.33-2.73 111.41-2.83 112.63-3.13 113.85-3.42 115.14-3.93 116.44-4.44 117.56-5.37 118.68-6.3 119.54-7.69 120.39-9.08 120.69-11.13L120.69-11.13Q120.69-13.04 120-14.4 119.32-15.77 118.15-16.67 116.97-17.58 115.39-17.99 113.8-18.41 112.04-18.41ZM125.13-4.2L125.13-4.2Q125.13-6.98 126.66-8.25 128.2-9.52 130.69-9.52L130.69-9.52Q131.67-9.52 132.52-9.47 133.38-9.42 134.16-9.23 134.94-9.03 135.7-8.64 136.45-8.25 137.28-7.52L137.28-7.52Q137.28-7.67 137.31-8.13 137.33-8.59 137.33-9.13 137.33-9.67 137.33-10.13 137.33-10.6 137.33-10.79L137.33-10.79Q137.28-11.67 137.28-13.06 137.28-14.45 137.06-15.92 136.85-17.38 136.19-18.7 135.53-20.02 134.06-20.7L134.06-20.7Q133.04-20.7 132.16-20.36 131.28-20.02 130.4-19.63 129.52-19.24 128.64-18.92 127.76-18.6 126.74-18.6L126.74-18.6Q126.74-19.82 127.49-20.63 128.25-21.44 129.33-21.88 130.4-22.31 131.57-22.46 132.74-22.61 133.62-22.61L133.62-22.61Q134.5-22.46 135.26-22.27 136.02-22.07 136.67-21.48 137.33-20.9 137.9-19.7 138.46-18.51 138.87-16.36 139.29-14.21 139.6-10.91 139.92-7.62 140.12-2.83L140.12-2.83Q140.21-2.2 139.7-1.73 139.19-1.27 138.31-0.95 137.43-0.63 136.33-0.42 135.23-0.2 134.11-0.1 132.99 0 131.96 0.05 130.94 0.1 130.25 0.1L130.25 0.1Q129.37 0.1 128.47-0.2 127.57-0.49 126.81-1.05 126.05-1.61 125.59-2.42 125.13-3.22 125.13-4.2ZM131.47-7.62L131.47-7.62Q129.03-6.93 128.06-5.98 127.08-5.03 127.2-4.15 127.32-3.27 128.35-2.56 129.37-1.86 130.84-1.64 132.3-1.42 134.01-1.88 135.72-2.34 137.28-3.71L137.28-3.71Q136.7-5.13 136.11-5.88 135.53-6.64 134.84-7.03 134.16-7.42 133.33-7.52 132.5-7.62 131.47-7.62ZM141.73-19.04L141.73-19.04Q142.31-19.29 142.75-19.14 143.19-18.99 143.48-18.6 143.78-18.21 143.92-17.7 144.07-17.19 144.17-16.7L144.17-16.7Q144.8-17.77 146-18.43 147.19-19.09 148.56-19.31 149.93-19.53 151.3-19.41 152.66-19.29 153.62-18.82 154.57-18.36 154.96-17.55 155.35-16.75 154.76-15.67L154.76-15.67Q153.49-16.41 152.1-16.85 150.71-17.29 149.39-17.14 148.07-16.99 146.95-16.14 145.83-15.28 145.09-13.43 144.36-11.57 144.19-8.52 144.02-5.47 144.61-0.93L144.61-0.93 142.75-0.93Q142.75-0.93 142.68-1.73 142.6-2.54 142.53-3.86 142.46-5.18 142.34-6.79 142.21-8.4 142.12-10.06 142.02-11.72 141.95-13.26 141.87-14.79 141.77-15.92L141.77-15.92Q141.77-16.06 141.75-16.5 141.73-16.94 141.73-17.46 141.73-17.97 141.73-18.41 141.73-18.85 141.73-19.04ZM158.76-1.32L158.76-1.32Q158.72-2.34 158.54-4.47 158.37-6.59 158.18-9.25 157.98-11.91 157.79-14.89 157.59-17.87 157.42-20.53 157.25-23.19 157.1-25.32 156.96-27.44 156.91-28.47L156.91-28.47Q156.86-28.91 156.84-30 156.81-31.1 156.76-32.35 156.71-33.59 156.69-34.69 156.66-35.79 156.66-36.23L156.66-36.23Q157.35-36.23 157.89-35.96 158.42-35.69 158.76-35.06L158.76-35.06Q158.86-34.03 158.98-32.15 159.11-30.27 159.25-27.83 159.4-25.39 159.57-22.61 159.74-19.82 159.89-17.09L159.89-17.09Q160.03-17.33 160.18-17.53 160.33-17.72 160.38-17.77L160.38-17.77Q160.91-18.36 161.64-19.14 162.38-19.92 163.18-20.75 163.99-21.58 164.79-22.39 165.6-23.19 166.26-23.85 166.92-24.51 167.36-24.9 167.8-25.29 167.89-25.29L167.89-25.29 169.75-24.37Q168.92-23.63 167.85-22.66 166.77-21.68 165.75-20.58 164.72-19.48 163.77-18.29 162.82-17.09 162.23-15.92L162.23-15.92Q162.23-15.87 162.21-15.7 162.18-15.53 162.18-15.43L162.18-15.43Q162.18-15.38 162.21-15.21 162.23-15.04 162.23-14.99L162.23-14.99 173.51-1.86Q173.51-1.81 173.53-1.66 173.56-1.51 173.56-1.42L173.56-1.42Q173.56-0.49 172.58 0L172.58 0 160.38-14.06Q160.33-14.11 160.25-14.23 160.18-14.36 160.08-14.5L160.08-14.5 160.62-5.03Q160.62-4.79 160.64-4.1 160.67-3.42 160.69-2.61 160.72-1.81 160.74-1.1 160.77-0.39 160.77-0.15L160.77-0.15Q160.13-0.15 159.59-0.42 159.06-0.68 158.76-1.32ZM177.07-37.94L177.07-37.94Q177.76-37.84 178.27-37.57 178.78-37.3 179.07-36.62L179.07-36.62Q179.07-35.69 179.15-34.06 179.22-32.42 179.29-30.27 179.37-28.13 179.46-25.63 179.56-23.14 179.66-20.61 179.76-18.07 179.83-15.58 179.9-13.09 179.98-10.94 180.05-8.79 180.1-7.13 180.15-5.47 180.2-4.59L180.2-4.59Q180.2-4.49 180.17-4.25 180.15-4 180.12-3.66 180.1-3.32 180.08-3 180.05-2.69 180.05-2.54L180.05-2.54Q180-2.25 180-1.83 180-1.42 179.9-1.03 179.81-0.63 179.59-0.32 179.37 0 178.88 0.05L178.88 0.05 178.05-0.98Q178-1.03 177.93-2.81 177.85-4.59 177.73-7.45 177.61-10.3 177.51-13.89 177.41-17.48 177.29-21.14 177.17-24.8 177.07-28.17 176.97-31.54 176.93-33.98L176.93-33.98Q176.93-34.18 176.95-34.77 176.97-35.35 177-35.96 177.02-36.57 177.05-37.13 177.07-37.7 177.07-37.94ZM183.27-11.47L183.27-11.47Q183.27-12.94 183.91-14.72 184.54-16.5 185.64-18.04 186.74-19.58 188.13-20.63 189.52-21.68 191.03-21.68L191.03-21.68Q191.86-21.68 192.67-21.34 193.48-21 194.23-20.43 194.99-19.87 195.6-19.17 196.21-18.46 196.55-17.68 196.89-16.89 196.92-16.16 196.94-15.43 196.5-14.89L196.5-14.89 186.2-12.99Q186.01-12.94 185.86-12.52 185.71-12.11 185.61-11.47 185.52-10.84 185.44-10.08 185.37-9.33 185.32-8.62 185.27-7.91 185.27-7.35 185.27-6.79 185.27-6.49L185.27-6.49Q185.27-5.13 185.93-4.27 186.59-3.42 187.62-2.98 188.64-2.54 189.94-2.39 191.23-2.25 192.5-2.25 193.77-2.25 194.89-2.34 196.01-2.44 196.75-2.44L196.75-2.44Q196.75-2.25 196.6-2 196.45-1.76 196.26-1.54 196.06-1.32 195.87-1.15 195.67-0.98 195.62-0.93L195.62-0.93Q195.23-0.83 194.43-0.66 193.62-0.49 192.72-0.34 191.82-0.2 191.03-0.1 190.25 0 189.96 0L189.96 0Q188.45 0.29 187.32-0.05 186.2-0.39 185.42-1.22 184.64-2.05 184.15-3.25 183.66-4.44 183.42-5.81 183.17-7.18 183.15-8.64 183.12-10.11 183.27-11.47ZM190.35-19.82L190.35-19.82Q189.91-19.82 189.2-19.36 188.5-18.9 187.89-18.19 187.27-17.48 186.86-16.67 186.44-15.87 186.59-15.28L186.59-15.28Q187.86-15.14 189.23-15.33 190.6-15.53 191.72-15.94 192.84-16.36 193.57-16.92 194.31-17.48 194.28-18.07 194.26-18.65 193.35-19.12 192.45-19.58 190.35-19.82Z" opacity="1" transform="matrix(1,0,0,1,0,0)" fill="black" class="wordmark-text-0" id="SvgjsPath3528"></path></svg></g></svg></g></svg></g></svg></g><g transform="matrix(1,0,0,1,56.554319860205325,0)"><svg viewBox="0 0 78.89136027958935 78.93280607409348" height="78.93280607409348" width="78.89136027958935"><g><svg xmlns="http://www.w3.org/2000/svg" xmlns:xlink="http://www.w3.org/1999/xlink" version="1.1" x="0" y="0" viewBox="5.018923855757735 5 89.95274307742372 90" style="enable-background:new 0 0 100 100;" xml:space="preserve" height="78.93280607409348" width="78.89136027958935" class="icon-icon-0" data-fill-palette-color="accent" id="SvgjsSvg3527"></svg></g></svg></g><g></g></svg></g></svg></g></svg></g></svg></g><defs><mask></mask></defs><mask><g id="SvgjsG3526"><svg viewBox="0 0 320 360" height="360" width="320"><g><svg></svg></g><g><svg viewBox="0 0 320 360" height="360" width="320"><g><path transform="translate(-74.99272,-51.79039) scale(4.65793,4.65793)" d="M20.6 59.9l0.8 1-0.4-1.3c-0.1-0.6-0.8 0.1-0.4 0.3M21.5 59.3c0.3 0.5 0.6 1 0.6 1.5 0 0.7 0.6 1 1.1 1.2-0.7-0.8-1.1-3-1.7-2.7M59.9 16.9c1.7 0 3.3-0.2 5.1 0.2 4.4 1.1 8.1 3.3 10.6 6.4l7 11.2c0.3 2.8 0.9 5.9 0.8 9.3 0.7 0 0.6-1 1.4-1.2-0.8 2-1.2 4.5-1.4 7.4-0.5-1.6 0-4 0.1-5.3-0.7 1.1-1.1 0.3-1.1-0.2 0.1-0.8-0.3-0.7-0.6-1-1.1-1-1.8-2.1-2.6-3.8 0.5-1.3 0.6-3.2-1-4.2-0.5-0.3-1.1-0.8-1.4-1.6-0.4-1.1-1.1-2.4-0.9-4.1 0.1-0.5-1.5 1.1-2.4 0.4-3.9-2.7-7.8-5.8-12.5-8.4-2.5 0-4.3-0.9-5.2-2-0.8-1-0.2-2.3 1-2.4 0.7 0 1.5-0.2 2.1 0.2 0.1-0.4 0.5-0.9 1-0.9M50 14.6l0.2 0.1c1 0.2 1.5 1.6 2.6 1.1 0 0.7 0.1 1.4-0.1 1.9-0.3 0.8-1.2 0.8-1.9 0.8-6.7-0.4-10.6 2.4-14.7 4.8-1.1 0.7-2.3 1.2-3.2 2.1-4.3 4-9 7.7-10.1 15.1l-0.9 8.2c-0.1 0.9-1.1 1.8-0.9 2.9l0.7 4.9c-0.7-0.7-1.1 0.2-0.9 0.6 0.1 0.3 0.5 1.3 1.1 0.4 0.8 1.5 1.6 4.4 2.7 5.7 3.4 4 7.8 7.6 11.4 11.2 0.9-0.2 1.6-0.2 1.8-0.8 0.3 0.6-0.3 1.2-0.8 1.3 1.6 1 3.4 1.9 5.8 2.1 3.1 0.2 6 0.7 8.7 1.4 1.4-0.4 2.8-0.6 4.3-0.7 0.5 0 0.8-0.8 1.4-1l0.1-1c0.6 0.9 0.5-0.3 0.1-0.9 0.7 0.6 0.9 1.1 1.2 1.5 0-0.3 0.8-1.4 0.8-0.1l0.2-1.3c0.3-0.2 0.4 1.1 0.7 0.2 0.3-0.9 0.9-0.2 1.5-0.5-0.2 0.4-0.1 1.2 0.6 0.7l0.8-0.7c0.5 1.2 1.3 0.7 1.7 0.5 4.4-2.8 8.8-6.1 13-9.4l-0.1 1.3 0.5-1.6c0.5 0.5 0.9 0.1 1.1-0.2 0.6-1 1.4-2 2.7-2.9-1.6 4.3-3.5 7.7-5.9 10.5l-1 1.2c0 0.7-0.2 1.6-1 1.7-0.4 0.1-1.2-0.2-1.8 0.4-0.3 0.4 0.7 1.2-0.1 0.6-0.7-0.5-1.4 0-2.2 0.2-0.6 0.2 0.4 0.8 0.6 1.2 0.2 0.4 0.4 0.8 0.3 1.3l-1.1-1.2c-1.3 0.7-2.1 2-3.2 3-0.5 0.4-0.3 1.1-0.3 1.7-0.7 0-1.5-0.2-1.9 0.2-0.3 0.4-0.2 1-0.2 1.6-1-0.1-1.1-1.6-2-1.3-0.9 0.2-1.9 0.3-2.7 0.8 0.6 1.2-1 0.5-0.8 0.7-1.5-0.9-2.8-1.6-4.4-1-3.4-1.1-7.6-0.6-10.7-0.2 0-0.5 0.1-1-0.1-1.1-0.2 0.5-0.8 0.3-0.7 0.3-1.9-1.3-3.8-2.1-5.8-3.2-1.8 0.2-3.5-0.7-4-1.2-1.4-1.3-3-0.6-4.3-0.9-2.8-0.7-3.8-3.6-4.1-5.6-0.2-1-1-1.4-1.3-1.3-1.3-4.2-3.3-8-4.9-11.9-0.4-1-0.3-2-0.3-3.1 0.5 0.2 1 0.1 0.9-0.6-0.5-3.3-1.7-5.8-3-8.2 0.7-3.4 0.8-7.4 2.4-10.4 1.4-2.7 4-4.1 5.8-6.4 0.6-0.8 0.6-1.9 1.2-2.6 2-2 4-4.1 6.2-5.9 1-0.8 2.2 0 3.7-0.3 0.5-1.8 2.5-3.4 4.4-2.9 0.8 0.2 2.4-1.9 2.9-2.1 0.8-0.3 0.4 0.8 0.4 1.5 1.9-1.5 4.5-2.3 6.9-3.2" fill="black" fill-rule="nonzero" stroke="none" stroke-width="1" stroke-linecap="butt" stroke-linejoin="miter" stroke-miterlimit="10" stroke-dasharray="" stroke-dashoffset="0" font-family="none" font-weight="none" font-size="none" text-anchor="none" style="mix-blend-mode: normal"></path></g><g transform="matrix(1,0,0,1,64,107.8089237112711)"><svg viewBox="0 0 192 144.3821525774578" height="144.3821525774578" width="192"><g><svg viewBox="0 0 192 144.3821525774578" height="144.3821525774578" width="192"><g><svg viewBox="0 0 192 144.3821525774578" height="144.3821525774578" width="192"><g transform="matrix(1,0,0,1,0,87.26724224888075)"><svg viewBox="0 0 192 57.11491032857704" height="57.11491032857704" width="192"><g id="SvgjsG3525"><svg viewBox="0 0 192 57.11491032857704" height="57.11491032857704" width="192" id="SvgjsSvg3524"><g><svg viewBox="0 0 192 57.11491032857704" height="57.11491032857704" width="192"><g transform="matrix(1,0,0,1,0,0)"><svg width="192" viewBox="0.63 -37.94 196.2908695652174 58.4" height="57.11491032857704" data-palette-color="#0088ff"><path d="M2.59-3.71L2.59-3.71Q2.83-4.3 3.34-4.44 3.86-4.59 4.44-3.71L4.44-3.71Q4.44-3.61 4.91-3.44 5.37-3.27 6.08-3.05 6.79-2.83 7.74-2.61 8.69-2.39 9.62-2.22 10.55-2.05 11.43-1.93 12.3-1.81 12.94-1.81L12.94-1.81Q14.6-1.81 15.99-2.51 17.38-3.22 18.38-4.35 19.38-5.47 19.92-6.91 20.46-8.35 20.46-9.86L20.46-9.86Q20.46-10.3 20.31-11.4 20.17-12.5 19.82-13.6 19.48-14.7 18.92-15.58 18.36-16.46 17.58-16.46L17.58-16.46Q12.5-15.87 9.25-15.99 6.01-16.11 4.1-16.75 2.2-17.38 1.44-18.48 0.68-19.58 0.63-21L0.63-21Q0.63-22.75 1.51-24.39 2.39-26.03 3.76-27.29 5.13-28.56 6.81-29.32 8.5-30.08 10.16-30.08L10.16-30.08Q11.52-30.08 13.01-29.74 14.5-29.39 15.77-28.69 17.04-27.98 17.85-26.83 18.65-25.68 18.65-24.07L18.65-24.07Q17.48-24.07 16.5-24.73 15.53-25.39 14.55-26.12 13.57-26.86 12.5-27.51 11.43-28.17 10.01-28.17L10.01-28.17Q8.84-28.17 7.64-27.59 6.45-27 5.49-26.07 4.54-25.15 3.93-24 3.32-22.85 3.32-21.63L3.32-21.63Q3.32-21.14 3.34-20.58 3.37-20.02 3.56-19.51 3.76-18.99 4.17-18.65 4.59-18.31 5.37-18.31L5.37-18.31 18.51-18.31Q19.34-18.31 19.95-17.8 20.56-17.29 20.97-16.5 21.39-15.72 21.66-14.75 21.92-13.77 22.09-12.84 22.27-11.91 22.31-11.11 22.36-10.3 22.36-9.86L22.36-9.86Q22.36-7.96 21.83-6.27 21.29-4.59 20.21-3.25 19.14-1.9 17.53-1.05 15.92-0.2 13.82 0L13.82 0Q12.79 0.1 11.16-0.05 9.52-0.2 7.86-0.61 6.2-1.03 4.74-1.78 3.27-2.54 2.59-3.71ZM26.66-1.32L26.66-1.32Q26.61-2.34 26.44-4.47 26.27-6.59 26.07-9.25 25.88-11.91 25.68-14.89 25.49-17.87 25.31-20.53 25.14-23.19 25-25.32 24.85-27.44 24.8-28.47L24.8-28.47Q24.75-28.91 24.73-30 24.7-31.1 24.66-32.35 24.61-33.59 24.58-34.69 24.56-35.79 24.56-36.23L24.56-36.23Q25.24-36.23 25.78-35.96 26.32-35.69 26.66-35.06L26.66-35.06Q26.76-34.03 26.88-32.15 27-30.27 27.15-27.83 27.29-25.39 27.46-22.61 27.63-19.82 27.78-17.09L27.78-17.09Q27.93-17.33 28.07-17.53 28.22-17.72 28.27-17.77L28.27-17.77Q28.81-18.36 29.54-19.14 30.27-19.92 31.08-20.75 31.88-21.58 32.69-22.39 33.49-23.19 34.15-23.85 34.81-24.51 35.25-24.9 35.69-25.29 35.79-25.29L35.79-25.29 37.64-24.37Q36.81-23.63 35.74-22.66 34.67-21.68 33.64-20.58 32.61-19.48 31.66-18.29 30.71-17.09 30.12-15.92L30.12-15.92Q30.12-15.87 30.1-15.7 30.08-15.53 30.08-15.43L30.08-15.43Q30.08-15.38 30.1-15.21 30.12-15.04 30.12-14.99L30.12-14.99 41.4-1.86Q41.4-1.81 41.43-1.66 41.45-1.51 41.45-1.42L41.45-1.42Q41.45-0.49 40.48 0L40.48 0 28.27-14.06Q28.22-14.11 28.15-14.23 28.07-14.36 27.98-14.5L27.98-14.5 28.51-5.03Q28.51-4.79 28.54-4.1 28.56-3.42 28.59-2.61 28.61-1.81 28.64-1.1 28.66-0.39 28.66-0.15L28.66-0.15Q28.02-0.15 27.49-0.42 26.95-0.68 26.66-1.32ZM46.82 0.1L46.09-18.95Q46.67-18.95 47.09-18.99 47.5-19.04 47.8-18.51L47.8-18.51Q47.94-16.31 48.14-14.04 48.33-11.77 48.53-9.47 48.73-7.18 48.8-4.86 48.87-2.54 48.82-0.34L48.82-0.34Q48.82-0.05 48.68 0.02 48.53 0.1 48.26 0.07 47.99 0.05 47.63 0.02 47.26 0 46.82 0.1L46.82 0.1ZM43.26-27.69L43.26-27.69Q43.26-28.03 43.31-28.44 43.35-28.86 43.53-29.2 43.7-29.54 43.96-29.79 44.23-30.03 44.62-30.03L44.62-30.03Q45.21-30.03 45.8-29.98 46.38-29.93 46.92-29.76 47.46-29.59 47.8-29.22 48.14-28.86 48.14-28.17L48.14-28.17Q48.14-27 47.26-26.1 46.38-25.2 45.11-25.2L45.11-25.2Q44.14-25.2 43.7-25.95 43.26-26.71 43.26-27.69ZM46.09-27.44L46.09-27.44Q45.94-27.44 45.94-27.2 45.94-26.95 46.09-26.95L46.09-26.95Q46.28-26.95 46.28-27.2 46.28-27.44 46.09-27.44ZM52.04-37.94L52.04-37.94Q52.73-37.84 53.24-37.57 53.75-37.3 54.05-36.62L54.05-36.62Q54.05-35.69 54.12-34.06 54.19-32.42 54.26-30.27 54.34-28.13 54.44-25.63 54.53-23.14 54.63-20.61 54.73-18.07 54.8-15.58 54.88-13.09 54.95-10.94 55.02-8.79 55.07-7.13 55.12-5.47 55.17-4.59L55.17-4.59Q55.17-4.49 55.14-4.25 55.12-4 55.1-3.66 55.07-3.32 55.05-3 55.02-2.69 55.02-2.54L55.02-2.54Q54.97-2.25 54.97-1.83 54.97-1.42 54.88-1.03 54.78-0.63 54.56-0.32 54.34 0 53.85 0.05L53.85 0.05 53.02-0.98Q52.97-1.03 52.9-2.81 52.82-4.59 52.7-7.45 52.58-10.3 52.48-13.89 52.39-17.48 52.26-21.14 52.14-24.8 52.04-28.17 51.95-31.54 51.9-33.98L51.9-33.98Q51.9-34.18 51.92-34.77 51.95-35.35 51.97-35.96 51.99-36.57 52.02-37.13 52.04-37.7 52.04-37.94ZM59.12-37.94L59.12-37.94Q59.8-37.84 60.32-37.57 60.83-37.3 61.12-36.62L61.12-36.62Q61.12-35.69 61.2-34.06 61.27-32.42 61.34-30.27 61.42-28.13 61.51-25.63 61.61-23.14 61.71-20.61 61.81-18.07 61.88-15.58 61.95-13.09 62.03-10.94 62.1-8.79 62.15-7.13 62.2-5.47 62.25-4.59L62.25-4.59Q62.25-4.49 62.22-4.25 62.2-4 62.17-3.66 62.15-3.32 62.12-3 62.1-2.69 62.1-2.54L62.1-2.54Q62.05-2.25 62.05-1.83 62.05-1.42 61.95-1.03 61.86-0.63 61.64-0.32 61.42 0 60.93 0.05L60.93 0.05 60.1-0.98Q60.05-1.03 59.98-2.81 59.9-4.59 59.78-7.45 59.66-10.3 59.56-13.89 59.46-17.48 59.34-21.14 59.22-24.8 59.12-28.17 59.02-31.54 58.97-33.98L58.97-33.98Q58.97-34.18 59-34.77 59.02-35.35 59.05-35.96 59.07-36.57 59.1-37.13 59.12-37.7 59.12-37.94ZM86.31-3.96L86.31-3.96Q87.19-3.96 87.95-3.61 88.71-3.27 89.44-2.86 90.17-2.44 90.93-2.12 91.68-1.81 92.56-1.81L92.56-1.81Q93.59-1.81 94.69-2.17 95.79-2.54 96.71-3.2 97.64-3.86 98.23-4.81 98.81-5.76 98.81-6.88L98.81-6.88Q98.86-7.23 98.84-7.71 98.81-8.2 98.52-8.72 98.23-9.23 97.54-9.69 96.86-10.16 95.57-10.4 94.27-10.64 92.32-10.67 90.37-10.69 87.49-10.3L87.49-10.3Q86.75-10.3 86.07-10.72 85.39-11.13 84.85-11.74 84.31-12.35 83.97-13.06 83.63-13.77 83.63-14.4L83.63-14.4Q83.63-16.31 84.43-17.5 85.24-18.7 86.51-19.41 87.78-20.12 89.34-20.41 90.9-20.7 92.51-20.7L92.51-20.7Q93.25-20.7 94.2-20.63 95.15-20.56 95.96-20.24 96.76-19.92 97.32-19.24 97.89-18.55 97.89-17.33L97.89-17.33Q97.79-16.5 97.62-16.33 97.45-16.16 97.13-16.43 96.81-16.7 96.37-17.19 95.93-17.68 95.32-18.14 94.71-18.6 93.86-18.85 93-19.09 91.93-18.85L91.93-18.85Q90.81-18.85 89.68-18.63 88.56-18.41 87.66-17.87 86.75-17.33 86.19-16.41 85.63-15.48 85.63-14.06L85.63-14.06Q85.63-13.33 86.29-13.06 86.95-12.79 88.05-12.79 89.15-12.79 90.54-12.87 91.93-12.94 93.39-12.94 94.86-12.94 96.23-12.72 97.59-12.5 98.64-11.84 99.69-11.18 100.28-9.96 100.86-8.74 100.72-6.79L100.72-6.79Q100.72-5.37 99.91-4.1 99.11-2.83 97.86-1.88 96.62-0.93 95.1-0.39 93.59 0.15 92.17 0L92.17 0Q91.59-0.05 90.59-0.32 89.58-0.59 88.63-1.07 87.68-1.56 87-2.27 86.31-2.98 86.31-3.96ZM104.62-12.65L104.62-12.65Q104.43-12.5 104.08-12.55 103.74-12.6 103.45-12.72 103.16-12.84 102.94-13.06 102.72-13.28 102.72-13.57L102.72-13.57Q102.72-15.23 103.74-16.63 104.77-18.02 106.28-19.02 107.8-20.02 109.5-20.58 111.21-21.14 112.63-21.14L112.63-21.14Q114.88-21.14 116.71-20.39 118.54-19.63 119.83-18.31 121.13-16.99 121.83-15.23 122.54-13.48 122.54-11.47L122.54-11.47Q122.59-8.94 121.39-6.84 120.2-4.74 118.27-3.25 116.34-1.76 113.97-1 111.6-0.24 109.31-0.44L109.31-0.44Q109.41 1.32 109.26 3.59 109.11 5.86 108.87 8.54 108.63 11.23 108.26 14.23 107.89 17.24 107.5 20.41L107.5 20.41Q107.5 20.46 107.21 20.46 106.92 20.46 106.6 20.39 106.28 20.31 105.96 20.24 105.65 20.17 105.6 20.21L105.6 20.21Q105.94 16.16 106.13 12.01 106.33 7.86 106.28 3.69 106.23-0.49 105.84-4.59 105.45-8.69 104.62-12.65ZM112.04-18.41L112.04-18.41Q111.12-18.36 110.04-18.14 108.97-17.92 108.14-17.48 107.31-17.04 106.82-16.31 106.33-15.58 106.48-14.5L106.48-14.5Q106.57-14.01 106.75-13.09 106.92-12.16 107.14-10.99 107.36-9.81 107.58-8.54 107.8-7.28 108.01-6.1 108.23-4.93 108.41-3.98 108.58-3.03 108.67-2.54L108.67-2.54Q109.26-2.64 110.33-2.73 111.41-2.83 112.63-3.13 113.85-3.42 115.14-3.93 116.44-4.44 117.56-5.37 118.68-6.3 119.54-7.69 120.39-9.08 120.69-11.13L120.69-11.13Q120.69-13.04 120-14.4 119.32-15.77 118.15-16.67 116.97-17.58 115.39-17.99 113.8-18.41 112.04-18.41ZM125.13-4.2L125.13-4.2Q125.13-6.98 126.66-8.25 128.2-9.52 130.69-9.52L130.69-9.52Q131.67-9.52 132.52-9.47 133.38-9.42 134.16-9.23 134.94-9.03 135.7-8.64 136.45-8.25 137.28-7.52L137.28-7.52Q137.28-7.67 137.31-8.13 137.33-8.59 137.33-9.13 137.33-9.67 137.33-10.13 137.33-10.6 137.33-10.79L137.33-10.79Q137.28-11.67 137.28-13.06 137.28-14.45 137.06-15.92 136.85-17.38 136.19-18.7 135.53-20.02 134.06-20.7L134.06-20.7Q133.04-20.7 132.16-20.36 131.28-20.02 130.4-19.63 129.52-19.24 128.64-18.92 127.76-18.6 126.74-18.6L126.74-18.6Q126.74-19.82 127.49-20.63 128.25-21.44 129.33-21.88 130.4-22.31 131.57-22.46 132.74-22.61 133.62-22.61L133.62-22.61Q134.5-22.46 135.26-22.27 136.02-22.07 136.67-21.48 137.33-20.9 137.9-19.7 138.46-18.51 138.87-16.36 139.29-14.21 139.6-10.91 139.92-7.62 140.12-2.83L140.12-2.83Q140.21-2.2 139.7-1.73 139.19-1.27 138.31-0.95 137.43-0.63 136.33-0.42 135.23-0.2 134.11-0.1 132.99 0 131.96 0.05 130.94 0.1 130.25 0.1L130.25 0.1Q129.37 0.1 128.47-0.2 127.57-0.49 126.81-1.05 126.05-1.61 125.59-2.42 125.13-3.22 125.13-4.2ZM131.47-7.62L131.47-7.62Q129.03-6.93 128.06-5.98 127.08-5.03 127.2-4.15 127.32-3.27 128.35-2.56 129.37-1.86 130.84-1.64 132.3-1.42 134.01-1.88 135.72-2.34 137.28-3.71L137.28-3.71Q136.7-5.13 136.11-5.88 135.53-6.64 134.84-7.03 134.16-7.42 133.33-7.52 132.5-7.62 131.47-7.62ZM141.73-19.04L141.73-19.04Q142.31-19.29 142.75-19.14 143.19-18.99 143.48-18.6 143.78-18.21 143.92-17.7 144.07-17.19 144.17-16.7L144.17-16.7Q144.8-17.77 146-18.43 147.19-19.09 148.56-19.31 149.93-19.53 151.3-19.41 152.66-19.29 153.62-18.82 154.57-18.36 154.96-17.55 155.35-16.75 154.76-15.67L154.76-15.67Q153.49-16.41 152.1-16.85 150.71-17.29 149.39-17.14 148.07-16.99 146.95-16.14 145.83-15.28 145.09-13.43 144.36-11.57 144.19-8.52 144.02-5.47 144.61-0.93L144.61-0.93 142.75-0.93Q142.75-0.93 142.68-1.73 142.6-2.54 142.53-3.86 142.46-5.18 142.34-6.79 142.21-8.4 142.12-10.06 142.02-11.72 141.95-13.26 141.87-14.79 141.77-15.92L141.77-15.92Q141.77-16.06 141.75-16.5 141.73-16.94 141.73-17.46 141.73-17.97 141.73-18.41 141.73-18.85 141.73-19.04ZM158.76-1.32L158.76-1.32Q158.72-2.34 158.54-4.47 158.37-6.59 158.18-9.25 157.98-11.91 157.79-14.89 157.59-17.87 157.42-20.53 157.25-23.19 157.1-25.32 156.96-27.44 156.91-28.47L156.91-28.47Q156.86-28.91 156.84-30 156.81-31.1 156.76-32.35 156.71-33.59 156.69-34.69 156.66-35.79 156.66-36.23L156.66-36.23Q157.35-36.23 157.89-35.96 158.42-35.69 158.76-35.06L158.76-35.06Q158.86-34.03 158.98-32.15 159.11-30.27 159.25-27.83 159.4-25.39 159.57-22.61 159.74-19.82 159.89-17.09L159.89-17.09Q160.03-17.33 160.18-17.53 160.33-17.72 160.38-17.77L160.38-17.77Q160.91-18.36 161.64-19.14 162.38-19.92 163.18-20.75 163.99-21.58 164.79-22.39 165.6-23.19 166.26-23.85 166.92-24.51 167.36-24.9 167.8-25.29 167.89-25.29L167.89-25.29 169.75-24.37Q168.92-23.63 167.85-22.66 166.77-21.68 165.75-20.58 164.72-19.48 163.77-18.29 162.82-17.09 162.23-15.92L162.23-15.92Q162.23-15.87 162.21-15.7 162.18-15.53 162.18-15.43L162.18-15.43Q162.18-15.38 162.21-15.21 162.23-15.04 162.23-14.99L162.23-14.99 173.51-1.86Q173.51-1.81 173.53-1.66 173.56-1.51 173.56-1.42L173.56-1.42Q173.56-0.49 172.58 0L172.58 0 160.38-14.06Q160.33-14.11 160.25-14.23 160.18-14.36 160.08-14.5L160.08-14.5 160.62-5.03Q160.62-4.79 160.64-4.1 160.67-3.42 160.69-2.61 160.72-1.81 160.74-1.1 160.77-0.39 160.77-0.15L160.77-0.15Q160.13-0.15 159.59-0.42 159.06-0.68 158.76-1.32ZM177.07-37.94L177.07-37.94Q177.76-37.84 178.27-37.57 178.78-37.3 179.07-36.62L179.07-36.62Q179.07-35.69 179.15-34.06 179.22-32.42 179.29-30.27 179.37-28.13 179.46-25.63 179.56-23.14 179.66-20.61 179.76-18.07 179.83-15.58 179.9-13.09 179.98-10.94 180.05-8.79 180.1-7.13 180.15-5.47 180.2-4.59L180.2-4.59Q180.2-4.49 180.17-4.25 180.15-4 180.12-3.66 180.1-3.32 180.08-3 180.05-2.69 180.05-2.54L180.05-2.54Q180-2.25 180-1.83 180-1.42 179.9-1.03 179.81-0.63 179.59-0.32 179.37 0 178.88 0.05L178.88 0.05 178.05-0.98Q178-1.03 177.93-2.81 177.85-4.59 177.73-7.45 177.61-10.3 177.51-13.89 177.41-17.48 177.29-21.14 177.17-24.8 177.07-28.17 176.97-31.54 176.93-33.98L176.93-33.98Q176.93-34.18 176.95-34.77 176.97-35.35 177-35.96 177.02-36.57 177.05-37.13 177.07-37.7 177.07-37.94ZM183.27-11.47L183.27-11.47Q183.27-12.94 183.91-14.72 184.54-16.5 185.64-18.04 186.74-19.58 188.13-20.63 189.52-21.68 191.03-21.68L191.03-21.68Q191.86-21.68 192.67-21.34 193.48-21 194.23-20.43 194.99-19.87 195.6-19.17 196.21-18.46 196.55-17.68 196.89-16.89 196.92-16.16 196.94-15.43 196.5-14.89L196.5-14.89 186.2-12.99Q186.01-12.94 185.86-12.52 185.71-12.11 185.61-11.47 185.52-10.84 185.44-10.08 185.37-9.33 185.32-8.62 185.27-7.91 185.27-7.35 185.27-6.79 185.27-6.49L185.27-6.49Q185.27-5.13 185.93-4.27 186.59-3.42 187.62-2.98 188.64-2.54 189.94-2.39 191.23-2.25 192.5-2.25 193.77-2.25 194.89-2.34 196.01-2.44 196.75-2.44L196.75-2.44Q196.75-2.25 196.6-2 196.45-1.76 196.26-1.54 196.06-1.32 195.87-1.15 195.67-0.98 195.62-0.93L195.62-0.93Q195.23-0.83 194.43-0.66 193.62-0.49 192.72-0.34 191.82-0.2 191.03-0.1 190.25 0 189.96 0L189.96 0Q188.45 0.29 187.32-0.05 186.2-0.39 185.42-1.22 184.64-2.05 184.15-3.25 183.66-4.44 183.42-5.81 183.17-7.18 183.15-8.64 183.12-10.11 183.27-11.47ZM190.35-19.82L190.35-19.82Q189.91-19.82 189.2-19.36 188.5-18.9 187.89-18.19 187.27-17.48 186.86-16.67 186.44-15.87 186.59-15.28L186.59-15.28Q187.86-15.14 189.23-15.33 190.6-15.53 191.72-15.94 192.84-16.36 193.57-16.92 194.31-17.48 194.28-18.07 194.26-18.65 193.35-19.12 192.45-19.58 190.35-19.82Z" opacity="1" transform="matrix(1,0,0,1,0,0)" fill="black" class="wordmark-text-0" id="SvgjsPath3523"></path></svg></g></svg></g></svg></g></svg></g><g transform="matrix(1,0,0,1,56.554319860205325,0)"><svg viewBox="0 0 78.89136027958935 78.93280607409348" height="78.93280607409348" width="78.89136027958935"><g><svg xmlns="http://www.w3.org/2000/svg" xmlns:xlink="http://www.w3.org/1999/xlink" version="1.1" x="0" y="0" viewBox="5.018923855757735 5 89.95274307742372 90" style="enable-background:new 0 0 100 100;" xml:space="preserve" height="78.93280607409348" width="78.89136027958935" class="icon-icon-0" data-fill-palette-color="accent" id="SvgjsSvg3522"><path d="M67.39 73.12c0-0.66-0.27-1.311-0.729-1.771-0.931-0.93-2.61-0.93-3.54 0-0.471 0.46-0.73 1.11-0.73 1.771 0 0.649 0.26 1.3 0.73 1.76 0.47 0.47 1.109 0.74 1.77 0.74s1.3-0.271 1.771-0.74C67.12 74.42 67.39 73.78 67.39 73.12z" fill="black"></path><path d="M28.49 69.62c0.54 0 1.09-0.181 1.55-0.54 1.08-0.87 1.26-2.44 0.399-3.521-0.859-1.08-2.43-1.26-3.51-0.39-1.08 0.86-1.26 2.43-0.399 3.51C27.02 69.3 27.75 69.62 28.49 69.62z" fill="black"></path><path d="M77.569 48.49c-1.38-0.051-2.539 1.029-2.59 2.409-0.04 1.381 1.04 2.54 2.41 2.591 0.03 0 0.061 0 0.09 0 1.34 0 2.45-1.061 2.5-2.41C80.03 49.7 78.95 48.54 77.569 48.49z" fill="black"></path><path d="M33.6 30.42c0.521 0 1.05-0.16 1.5-0.49 1.101-0.83 1.33-2.39 0.51-3.5-0.819-1.11-2.39-1.34-3.5-0.51-1.109 0.82-1.34 2.39-0.51 3.49C32.09 30.069 32.84 30.42 33.6 30.42z" fill="black"></path><path d="M29.52 35.66c0.8-1.141 0.521-2.69-0.609-3.49-1.13-0.79-2.69-0.521-3.48 0.61-0.79 1.13-0.52 2.689 0.61 3.489 0.439 0.3 0.939 0.45 1.43 0.45C28.26 36.72 29.04 36.35 29.52 35.66z" fill="black"></path><path d="M41.399 26.37c0.261 0 0.521-0.04 0.78-0.12 1.311-0.44 2.021-1.851 1.59-3.16-0.43-1.31-1.84-2.021-3.149-1.59-1.311 0.43-2.03 1.84-1.601 3.149C39.37 25.71 40.35 26.37 41.399 26.37z" fill="black"></path><path d="M56.38 23.13c-0.44 1.31 0.26 2.72 1.57 3.16 0.27 0.09 0.529 0.13 0.8 0.13 1.04 0 2.02-0.66 2.37-1.7 0.439-1.31-0.271-2.729-1.58-3.17C58.229 21.109 56.81 21.819 56.38 23.13z" fill="black"></path><path d="M77.1 44.67c1.33-0.39 2.09-1.771 1.7-3.101-0.39-1.319-1.78-2.079-3.1-1.699-1.33 0.39-2.091 1.779-1.7 3.1 0.319 1.09 1.319 1.8 2.399 1.8C76.63 44.77 76.87 44.74 77.1 44.67z" fill="black"></path><path d="M68.02 26.02c-1.1-0.83-2.67-0.609-3.5 0.49s-0.609 2.67 0.5 3.5c0.45 0.34 0.98 0.51 1.5 0.51 0.761 0 1.511-0.35 2-1C69.35 28.41 69.13 26.85 68.02 26.02z" fill="black"></path><path d="M23.31 57.12c-1.29 0.47-1.96 1.91-1.479 3.21 0.37 1.01 1.319 1.64 2.35 1.64 0.28 0 0.57-0.05 0.86-0.16 1.29-0.47 1.96-1.91 1.479-3.21C26.04 57.31 24.609 56.64 23.31 57.12z" fill="black"></path><path d="M74.899 61.95c0.29 0.109 0.58 0.159 0.87 0.159 1.021 0 1.971-0.619 2.351-1.63 0.479-1.29-0.181-2.729-1.471-3.21-1.3-0.489-2.739 0.17-3.22 1.46C72.95 60.02 73.6 61.47 74.899 61.95z" fill="black"></path><path d="M74.67 32.92c-0.79-1.13-2.351-1.42-3.48-0.63-1.14 0.79-1.42 2.35-0.63 3.479 0.48 0.7 1.26 1.08 2.05 1.08 0.49 0 0.99-0.149 1.431-0.45C75.17 35.609 75.45 34.05 74.67 32.92z" fill="black"></path><path d="M69.47 65.67c-0.86 1.07-0.689 2.649 0.38 3.52 0.46 0.37 1.021 0.551 1.57 0.551 0.729 0 1.45-0.32 1.95-0.931 0.859-1.08 0.689-2.649-0.38-3.52C71.92 64.43 70.34 64.59 69.47 65.67z" fill="black"></path><path d="M21.25 41.41c-0.4 1.319 0.359 2.71 1.68 3.109 0.24 0.07 0.48 0.11 0.71 0.11 1.08 0 2.08-0.71 2.4-1.79 0.39-1.32-0.36-2.72-1.681-3.11C23.04 39.33 21.64 40.09 21.25 41.41z" fill="black"></path><path d="M22.51 53.34c0.03 0 0.05 0 0.08 0 1.38-0.05 2.46-1.2 2.42-2.58s-1.19-2.46-2.57-2.42-2.47 1.19-2.42 2.57C20.05 52.27 21.17 53.34 22.51 53.34z" fill="black"></path><path d="M47.58 22.49C47.569 23.87 48.689 25 50.069 25c0 0 0 0 0.011 0 1.37 0 2.489-1.11 2.5-2.49 0-1.38-1.11-2.51-2.5-2.51C48.7 20 47.58 21.109 47.58 22.49z" fill="black"></path><path d="M33.3 71.319c-0.47 0.461-0.74 1.11-0.74 1.771 0 0.65 0.271 1.3 0.74 1.76 0.46 0.47 1.1 0.74 1.76 0.74s1.311-0.271 1.771-0.74c0.47-0.47 0.729-1.109 0.729-1.76 0-0.66-0.26-1.3-0.729-1.771C35.899 70.39 34.22 70.39 33.3 71.319z" fill="black"></path><path d="M71.45 79.42c0-0.66-0.271-1.3-0.73-1.771-0.939-0.93-2.61-0.93-3.54 0-0.46 0.471-0.729 1.11-0.729 1.771s0.27 1.3 0.729 1.77c0.47 0.46 1.11 0.73 1.771 0.73 0.659 0 1.3-0.271 1.77-0.73C71.18 80.72 71.45 80.08 71.45 79.42z" fill="black"></path><path d="M16.28 59.729c-1.301 0.471-1.971 1.91-1.49 3.2 0.37 1.01 1.33 1.64 2.35 1.64 0.29 0 0.58-0.05 0.86-0.149 1.3-0.48 1.96-1.92 1.49-3.21C19.01 59.91 17.569 59.25 16.28 59.729z" fill="black"></path><path d="M39.04 19.25c0.26 0 0.52-0.04 0.779-0.13 0 0.01 0 0.01 0 0.01 1.311-0.44 2.021-1.85 1.591-3.16-0.431-1.32-1.841-2.03-3.16-1.59h0.01c-1.32 0.43-2.03 1.84-1.6 3.15C37.01 18.58 37.99 19.25 39.04 19.25z" fill="black"></path><path d="M23.37 31.37c0.79-1.13 0.52-2.69-0.61-3.48-1.13-0.8-2.69-0.52-3.479 0.61-0.801 1.13-0.521 2.689 0.609 3.479 0.43 0.301 0.93 0.45 1.43 0.45C22.109 32.43 22.88 32.06 23.37 31.37z" fill="black"></path><path d="M31.12 20.42c-0.82-1.11-2.391-1.34-3.5-0.51-1.101 0.819-1.33 2.39-0.511 3.5 0.49 0.649 1.24 1 2.011 1 0.52 0 1.04-0.16 1.489-0.49C31.72 23.09 31.939 21.52 31.12 20.42z" fill="black"></path><path d="M50.09 12.5c-1.38 0-2.5 1.109-2.5 2.5-0.01 1.37 1.11 2.5 2.49 2.5s2.5-1.12 2.51-2.49C52.59 13.63 51.47 12.5 50.09 12.5z" fill="black"></path><path d="M15.74 42.399c0.239 0.07 0.479 0.101 0.71 0.101 1.08 0 2.069-0.7 2.399-1.79C19.24 39.39 18.49 38 17.16 37.6c-1.32-0.39-2.71 0.36-3.101 1.69C13.66 40.609 14.41 42 15.74 42.399z" fill="black"></path><path d="M15.09 53.59c1.38-0.05 2.47-1.2 2.43-2.58-0.05-1.38-1.2-2.46-2.58-2.42s-2.46 1.2-2.42 2.58c0.04 1.35 1.15 2.42 2.5 2.42C15.04 53.59 15.069 53.59 15.09 53.59z" fill="black"></path><path d="M58.75 16.01c-0.44 1.31 0.27 2.72 1.58 3.16 0.26 0.09 0.529 0.13 0.79 0.13 1.04 0 2.02-0.66 2.37-1.7 0.439-1.31-0.271-2.729-1.58-3.17C60.6 13.99 59.189 14.7 58.75 16.01z" fill="black"></path><path d="M85.06 48.76c-1.37-0.05-2.529 1.03-2.58 2.41-0.05 1.37 1.03 2.53 2.41 2.58 0.03 0 0.061 0 0.09 0 1.34 0 2.45-1.061 2.5-2.41C87.52 49.96 86.45 48.8 85.06 48.76z" fill="black"></path><path d="M72.52 20.01c-1.1-0.83-2.67-0.61-3.5 0.5-0.83 1.1-0.609 2.67 0.5 3.5 0.44 0.34 0.971 0.5 1.49 0.5 0.76 0 1.51-0.35 2-1C73.84 22.41 73.62 20.84 72.52 20.01z" fill="black"></path><path d="M24.59 70.25c-0.86-1.08-2.44-1.25-3.51-0.391-1.08 0.86-1.261 2.431-0.4 3.511 0.5 0.62 1.22 0.939 1.96 0.939 0.55 0 1.09-0.18 1.561-0.54C25.27 72.899 25.45 71.33 24.59 70.25z" fill="black"></path><path d="M78.83 69.99c-1.07-0.86-2.65-0.7-3.511 0.38-0.869 1.069-0.699 2.649 0.37 3.52 0.471 0.37 1.021 0.55 1.57 0.55 0.73 0 1.45-0.319 1.95-0.93C80.08 72.43 79.91 70.859 78.83 69.99z" fill="black"></path><path d="M81.2 40.859c0.319 1.091 1.31 1.801 2.399 1.801 0.23 0 0.46-0.03 0.7-0.101 1.32-0.39 2.08-1.779 1.7-3.1-0.391-1.33-1.78-2.09-3.101-1.7C81.569 38.14 80.81 39.53 81.2 40.859z" fill="black"></path><path d="M81.93 64.56c0.29 0.11 0.58 0.16 0.87 0.16 1.02 0 1.97-0.62 2.35-1.62 0.48-1.3-0.18-2.74-1.47-3.22-1.3-0.48-2.74 0.18-3.22 1.47C79.979 62.64 80.64 64.08 81.93 64.56z" fill="black"></path><path d="M80.83 28.64c-0.79-1.13-2.351-1.41-3.48-0.63-1.14 0.79-1.42 2.35-0.63 3.48 0.48 0.699 1.26 1.079 2.061 1.079 0.489 0 0.989-0.149 1.42-0.449C81.33 31.33 81.609 29.78 80.83 28.64z" fill="black"></path><path d="M29.22 77.609c-0.46 0.471-0.729 1.11-0.729 1.771s0.27 1.3 0.729 1.77c0.47 0.46 1.11 0.73 1.771 0.73 0.659 0 1.3-0.271 1.77-0.73 0.46-0.47 0.73-1.109 0.73-1.77 0-0.65-0.271-1.3-0.73-1.771C31.819 76.689 30.16 76.68 29.22 77.609z" fill="black"></path><path d="M71.24 83.96c-0.46 0.46-0.73 1.109-0.73 1.77 0 0.65 0.271 1.301 0.73 1.761 0.46 0.47 1.109 0.739 1.77 0.739s1.3-0.27 1.771-0.739c0.46-0.46 0.729-1.11 0.729-1.761 0-0.66-0.27-1.31-0.729-1.77C73.84 83.03 72.17 83.03 71.24 83.96z" fill="black"></path><path d="M9.97 35.46c-1.32-0.391-2.71 0.359-3.11 1.689-0.39 1.32 0.36 2.71 1.69 3.11 0.23 0.07 0.47 0.1 0.71 0.1 1.08 0 2.07-0.699 2.4-1.79C12.05 37.25 11.3 35.859 9.97 35.46z" fill="black"></path><path d="M24.64 18.399c0.521 0 1.04-0.159 1.49-0.5 1.11-0.819 1.33-2.39 0.51-3.5-0.83-1.109-2.39-1.33-3.5-0.51-1.109 0.83-1.33 2.391-0.51 3.5C23.12 18.05 23.87 18.399 24.64 18.399z" fill="black"></path><path d="M37.46 12c0.01 0 0.01 0 0.01 0 1.311-0.431 2.021-1.84 1.59-3.15-0.43-1.319-1.85-2.03-3.16-1.6-1.31 0.439-2.02 1.85-1.59 3.16 0.34 1.05 1.32 1.72 2.37 1.72C36.939 12.13 37.2 12.09 37.46 12z" fill="black"></path><path d="M90.71 62.5c-1.29-0.49-2.73 0.17-3.22 1.47-0.48 1.29 0.18 2.73 1.47 3.21 0.29 0.11 0.59 0.16 0.88 0.16 1.01 0 1.96-0.62 2.34-1.63C92.66 64.42 92 62.979 90.71 62.5z" fill="black"></path><path d="M77.52 17.51c0.82-1.1 0.601-2.67-0.5-3.5-1.1-0.83-2.67-0.61-3.5 0.5-0.83 1.1-0.609 2.67 0.49 3.5 0.01 0 0.01 0 0.01 0 0.44 0.34 0.971 0.5 1.49 0.5C76.27 18.51 77.02 18.16 77.52 17.51z" fill="black"></path><path d="M64.29 7.319c-1.311-0.439-2.73 0.271-3.16 1.58-0.44 1.301 0.26 2.721 1.58 3.16-0.01 0-0.01 0-0.01 0 0.27 0.09 0.529 0.13 0.8 0.13 1.04 0 2.02-0.659 2.37-1.71C66.31 9.17 65.6 7.75 64.29 7.319z" fill="black"></path><path d="M50.1 5c-1.38 0-2.5 1.109-2.5 2.49C47.59 8.88 48.71 10 50.09 10h0.01c1.38 0 2.49-1.12 2.5-2.49C52.6 6.12 51.479 5 50.1 5z" fill="black"></path><path d="M90.79 40.54c0.24 0 0.47-0.03 0.71-0.101 1.319-0.38 2.08-1.77 1.7-3.1-0.391-1.32-1.78-2.08-3.11-1.7-1.32 0.391-2.08 1.78-1.69 3.11C88.71 39.84 89.71 40.54 90.79 40.54z" fill="black"></path><path d="M15.21 74.54c-1.07 0.859-1.25 2.43-0.391 3.51 0.5 0.62 1.221 0.94 1.961 0.94 0.539 0 1.1-0.181 1.56-0.551 1.07-0.859 1.25-2.43 0.39-3.51C17.859 73.85 16.29 73.68 15.21 74.54z" fill="black"></path><path d="M9.24 62.319c-1.301 0.471-1.971 1.91-1.49 3.211 0.38 1.01 1.33 1.63 2.35 1.63 0.29 0 0.58-0.051 0.86-0.15 1.3-0.479 1.96-1.92 1.49-3.21C11.97 62.5 10.53 61.84 9.24 62.319z" fill="black"></path><path d="M10.02 51.25c-0.04-1.38-1.2-2.46-2.58-2.42s-2.46 1.189-2.42 2.569c0.04 1.36 1.15 2.431 2.5 2.431 0.03 0 0.05 0 0.08 0C8.979 53.78 10.06 52.63 10.02 51.25z" fill="black"></path><path d="M84.68 74.689c-1.08-0.87-2.649-0.699-3.52 0.38-0.86 1.07-0.7 2.65 0.38 3.511 0.46 0.38 1.02 0.56 1.569 0.56 0.73 0 1.45-0.32 1.95-0.93C85.92 77.13 85.75 75.56 84.68 74.689z" fill="black"></path><path d="M84.939 28.29c0.49 0 0.99-0.141 1.42-0.44 1.141-0.79 1.421-2.35 0.631-3.479-0.79-1.141-2.351-1.42-3.48-0.63s-1.42 2.34-0.63 3.479C83.37 27.92 84.149 28.29 84.939 28.29z" fill="black"></path><path d="M92.56 49.02c-1.38-0.05-2.54 1.03-2.58 2.41-0.05 1.38 1.021 2.54 2.41 2.59 0.021 0 0.05 0 0.08 0 1.34 0 2.46-1.06 2.5-2.41C95.02 50.229 93.939 49.069 92.56 49.02z" fill="black"></path><path d="M17.22 27.069c0.79-1.13 0.521-2.689-0.61-3.479-1.13-0.79-2.689-0.521-3.479 0.61-0.8 1.13-0.521 2.689 0.61 3.489 0.43 0.301 0.93 0.45 1.43 0.45C15.96 28.14 16.729 27.77 17.22 27.069z" fill="black"></path><path d="M25.149 83.91c-0.46 0.46-0.729 1.109-0.729 1.77s0.27 1.3 0.729 1.76c0.471 0.471 1.11 0.74 1.771 0.74s1.3-0.27 1.76-0.74c0.47-0.46 0.74-1.1 0.74-1.76s-0.271-1.3-0.74-1.77C27.76 82.979 26.08 82.979 25.149 83.91z" fill="black"></path><path d="M72.5 50c0-12.813-10.771-23.166-23.727-22.467C36.969 28.161 27.426 38.306 27.5 50.146c0.049 7.595 3.893 14.599 10.282 18.737C39.171 69.782 40 71.332 40 73.029V85c0 5.514 4.486 10 10 10s10-4.486 10-10V73.03c0-1.701 0.814-3.243 2.179-4.122C68.642 64.741 72.5 57.673 72.5 50zM55 75H45v-1.971c0-3.4-1.683-6.52-4.5-8.344-4.972-3.22-7.962-8.667-8-14.571-0.058-9.21 7.361-17.1 16.539-17.589C49.361 32.509 49.681 32.5 50 32.5c9.649 0 17.5 7.851 17.5 17.5 0 5.967-3.002 11.464-8.03 14.706C56.671 66.51 55 69.622 55 73.03V75zM50 90c-2.757 0-5-2.243-5-5v-5h10v5C55 87.757 52.757 90 50 90z" fill="black"></path><polygon points="58.232,43.232 48,53.465 41.768,47.232 38.232,50.768 48,60.535 61.768,46.768 " fill="black"></polygon></svg></g></svg></g><g></g></svg></g></svg></g></svg></g></svg></g><defs><mask></mask></defs></svg><rect width="320" height="360" fill="black" stroke="none" visibility="hidden"></rect></g></mask></svg><rect width="320" height="360" fill="black" stroke="none" visibility="hidden"></rect></g></mask><linearGradient x1="0" x2="1" y1="0.548" y2="0.55" id="da0717e3-b2e5-4cde-a15d-3b9516b85d48"><stop stop-color="#ff6cab" offset="0"></stop><stop stop-color="#7366ff" offset="1"></stop></linearGradient></svg><rect width="320" height="360" fill="none" stroke="none" visibility="hidden"></rect></g></svg></g></svg>